Bodoni-96-Bold-Italic.ufo
<glyph name="dollar" format="2">
  <advance width="4800"/>
  <unicode hex="0024"/>
  <outline>
    <contour>
      <point x="3048" y="6640" type="line"/>
      <point x="3064" y="6640" type="line"/>
      <point x="1384" y="-640" type="line"/>
      <point x="1368" y="-640" type="line"/>
    </contour>
    <contour>
      <point x="3696" y="6640" type="line"/>
      <point x="3712" y="6640" type="line"/>
      <point x="2032" y="-640" type="line"/>
      <point x="2016" y="-640" type="line"/>
    </contour>
    <contour>
      <point x="2000" y="5000" type="curve" smooth="yes"/>
      <point x="2000" y="3600"/>
      <point x="4520" y="4080"/>
      <point x="4520" y="1960" type="curve" smooth="yes"/>
      <point x="4520" y="640"/>
      <point x="3248" y="-120"/>
      <point x="2120" y="-120" type="curve" smooth="yes"/>
      <point x="1032" y="-120"/>
      <point x="240" y="576"/>
      <point x="240" y="1296" type="curve" smooth="yes"/>
      <point x="240" y="1704"/>
      <point x="488" y="2056"/>
      <point x="920" y="2056" type="curve" smooth="yes"/>
      <point x="1240" y="2056"/>
      <point x="1552" y="1816"/>
      <point x="1552" y="1424" type="curve" smooth="yes"/>
      <point x="1552" y="984"/>
      <point x="1232" y="768"/>
      <point x="880" y="768" type="curve" smooth="yes"/>
      <point x="552" y="768"/>
      <point x="336" y="984"/>
      <point x="272" y="1160" type="curve"/>
      <point x="352" y="496"/>
      <point x="1128" y="-104"/>
      <point x="2120" y="-104" type="curve" smooth="yes"/>
      <point x="2968" y="-104"/>
      <point x="3480" y="568"/>
      <point x="3480" y="1200" type="curve" smooth="yes"/>
      <point x="3480" y="2760"/>
      <point x="1000" y="2080"/>
      <point x="1000" y="4120" type="curve" smooth="yes"/>
      <point x="1000" y="5280"/>
      <point x="2208" y="6080"/>
      <point x="3216" y="6080" type="curve" smooth="yes"/>
      <point x="4080" y="6080"/>
      <point x="4880" y="5504"/>
      <point x="4880" y="4816" type="curve" smooth="yes"/>
      <point x="4880" y="4448"/>
      <point x="4640" y="4096"/>
      <point x="4208" y="4096" type="curve" smooth="yes"/>
      <point x="3888" y="4096"/>
      <point x="3568" y="4320"/>
      <point x="3568" y="4736" type="curve" smooth="yes"/>
      <point x="3568" y="5136"/>
      <point x="3928" y="5352"/>
      <point x="4240" y="5352" type="curve" smooth="yes"/>
      <point x="4576" y="5352"/>
      <point x="4768" y="5144"/>
      <point x="4832" y="4984" type="curve"/>
      <point x="4744" y="5536"/>
      <point x="4072" y="6048"/>
      <point x="3256" y="6048" type="curve" smooth="yes"/>
      <point x="2408" y="6048"/>
      <point x="2000" y="5512"/>
    </contour>
  </outline>
</glyph>
<glyph name="percent" format="2">
  <advance width="1000"/>
  <unicode hex="0025"/>
  <outline>
    <contour>
      <point x="730" y="-10" type="curve" smooth="yes"/>
      <point x="627" y="-10"/>
      <point x="555" y="37"/>
      <point x="555" y="140" type="curve" smooth="yes"/>
      <point x="555" y="303"/>
      <point x="677" y="430"/>
      <point x="820" y="430" type="curve" smooth="yes"/>
      <point x="923" y="430"/>
      <point x="995" y="383"/>
      <point x="995" y="280" type="curve" smooth="yes"/>
      <point x="995" y="117"/>
      <point x="873" y="-10"/>
    </contour>
    <contour>
      <point x="825" y="428" type="curve" smooth="yes"/>
      <point x="766" y="428"/>
      <point x="690" y="185"/>
      <point x="690" y="78" type="curve" smooth="yes"/>
      <point x="690" y="31"/>
      <point x="701" y="-8"/>
      <point x="725" y="-8" type="curve" smooth="yes"/>
      <point x="784" y="-8"/>
      <point x="858" y="229"/>
      <point x="858" y="336" type="curve" smooth="yes"/>
      <point x="858" y="383"/>
      <point x="849" y="428"/>
    </contour>
    <contour>
      <point x="893" y="750" type="line"/>
      <point x="895" y="750" type="line"/>
      <point x="195" y="0" type="line"/>
      <point x="193" y="0" type="line"/>
    </contour>
    <contour>
      <point x="275" y="320" type="curve" smooth="yes"/>
      <point x="172" y="320"/>
      <point x="100" y="367"/>
      <point x="100" y="470" type="curve" smooth="yes"/>
      <point x="100" y="633"/>
      <point x="222" y="760"/>
      <point x="365" y="760" type="curve" smooth="yes"/>
      <point x="468" y="760"/>
      <point x="540" y="713"/>
      <point x="540" y="610" type="curve" smooth="yes"/>
      <point x="540" y="447"/>
      <point x="418" y="320"/>
    </contour>
    <contour>
      <point x="370" y="758" type="curve" smooth="yes"/>
      <point x="311" y="758"/>
      <point x="235" y="515"/>
      <point x="235" y="408" type="curve" smooth="yes"/>
      <point x="235" y="361"/>
      <point x="246" y="322"/>
      <point x="270" y="322" type="curve" smooth="yes"/>
      <point x="329" y="322"/>
      <point x="402" y="568"/>
      <point x="402" y="675" type="curve" smooth="yes"/>
      <point x="402" y="722"/>
      <point x="394" y="758"/>
    </contour>
  </outline>
</glyph>
<glyph name="ampersand" format="2">
  <advance width="3435"/>
  <unicode hex="0026"/>
  <outline>
    <contour>
      <point x="1714" y="1874" type="line"/>
      <point x="2007" y="2015"/>
      <point x="2114" y="2344"/>
      <point x="2114" y="2620" type="curve" smooth="yes"/>
      <point x="2114" y="2842"/>
      <point x="2064" y="3104"/>
      <point x="1888" y="3104" type="curve" smooth="yes"/>
      <point x="1642" y="3104"/>
      <point x="1548" y="2798"/>
      <point x="1548" y="2540" type="curve" smooth="yes"/>
      <point x="1548" y="2397"/>
      <point x="1596" y="2185"/>
      <point x="1728" y="1925" type="curve" smooth="yes"/>
      <point x="2502" y="389" type="line" smooth="yes"/>
      <point x="2586" y="217"/>
      <point x="2672" y="28"/>
      <point x="2836" y="28" type="curve" smooth="yes"/>
      <point x="2984" y="28"/>
      <point x="3127" y="118"/>
      <point x="3204" y="290" type="curve"/>
      <point x="3211" y="287" type="line"/>
      <point x="3133" y="107"/>
      <point x="2945" y="-41"/>
      <point x="2580" y="-41" type="curve" smooth="yes"/>
      <point x="2281" y="-41"/>
      <point x="2023" y="53"/>
      <point x="1806" y="434" type="curve" smooth="yes"/>
      <point x="1040" y="1925" type="line" smooth="yes"/>
      <point x="948" y="2095"/>
      <point x="914" y="2245"/>
      <point x="914" y="2388" type="curve" smooth="yes"/>
      <point x="914" y="2798"/>
      <point x="1364" y="3113"/>
      <point x="1921" y="3113" type="curve" smooth="yes"/>
      <point x="2277" y="3113"/>
      <point x="2704" y="2986"/>
      <point x="2704" y="2627" type="curve" smooth="yes"/>
      <point x="2704" y="2211"/>
      <point x="2170" y="2020"/>
      <point x="1720" y="1870" type="curve"/>
    </contour>
    <contour>
      <point x="1200" y="1653" type="curve"/>
      <point x="1205" y="1646" type="line"/>
      <point x="985" y="1499"/>
      <point x="717" y="1286"/>
      <point x="717" y="820" type="curve" smooth="yes"/>
      <point x="717" y="409"/>
      <point x="1012" y="15"/>
      <point x="1397" y="15" type="curve" smooth="yes"/>
      <point x="2318" y="15"/>
      <point x="3322" y="855"/>
      <point x="3322" y="1426" type="curve" smooth="yes"/>
      <point x="3322" y="1482" type="line"/>
      <point x="3286" y="1294"/>
      <point x="3111" y="1168"/>
      <point x="2931" y="1168" type="curve" smooth="yes"/>
      <point x="2726" y="1168"/>
      <point x="2592" y="1340"/>
      <point x="2592" y="1504" type="curve" smooth="yes"/>
      <point x="2592" y="1688"/>
      <point x="2757" y="1839"/>
      <point x="2949" y="1839" type="curve" smooth="yes"/>
      <point x="3167" y="1839"/>
      <point x="3334" y="1667"/>
      <point x="3334" y="1438" type="curve" smooth="yes"/>
      <point x="3334" y="865"/>
      <point x="2350" y="-41"/>
      <point x="1122" y="-41" type="curve" smooth="yes"/>
      <point x="556" y="-41"/>
      <point x="82" y="131"/>
      <point x="82" y="620" type="curve" smooth="yes"/>
      <point x="82" y="1182"/>
      <point x="592" y="1406"/>
    </contour>
  </outline>
</glyph>
<glyph name="comma" format="2">
  <advance width="275"/>
  <unicode hex="002C"/>
  <outline>
    <contour>
      <point x="25" y="78" type="curve" smooth="yes"/>
      <point x="25" y="126"/>
      <point x="69" y="168"/>
      <point x="122" y="168" type="curve" smooth="yes"/>
      <point x="176" y="168"/>
      <point x="220" y="131"/>
      <point x="220" y="58" type="curve" smooth="yes"/>
      <point x="220" y="-66"/>
      <point x="86" y="-156"/>
      <point x="-34" y="-156" type="curve"/>
      <point x="-34" y="-154" type="line"/>
      <point x="79" y="-154"/>
      <point x="223" y="-67"/>
      <point x="218" y="66" type="curve"/>
      <point x="212" y="24"/>
      <point x="169" y="-10"/>
      <point x="115" y="-10" type="curve" smooth="yes"/>
      <point x="57" y="-10"/>
      <point x="25" y="32"/>
    </contour>
  </outline>
</glyph>
<glyph name="period" format="2">
  <advance width="2080"/>
  <unicode hex="002E"/>
  <outline>
    <contour>
      <point x="200" y="640" type="curve" smooth="yes"/>
      <point x="200" y="1040"/>
      <point x="520" y="1360"/>
      <point x="920" y="1360" type="curve" smooth="yes"/>
      <point x="1320" y="1360"/>
      <point x="1640" y="1040"/>
      <point x="1640" y="640" type="curve" smooth="yes"/>
      <point x="1640" y="240"/>
      <point x="1320" y="-80"/>
      <point x="920" y="-80" type="curve" smooth="yes"/>
      <point x="520" y="-80"/>
      <point x="200" y="240"/>
    </contour>
  </outline>
</glyph>
<glyph name="two" format="2">
  <advance width="4840"/>
  <unicode hex="0032"/>
  <outline>
    <contour>
      <point x="768" y="4280" type="curve"/>
      <point x="832" y="4584"/>
      <point x="1112" y="4856"/>
      <point x="1536" y="4856" type="curve" smooth="yes"/>
      <point x="1904" y="4856"/>
      <point x="2200" y="4592"/>
      <point x="2200" y="4224" type="curve" smooth="yes"/>
      <point x="2200" y="3784"/>
      <point x="1832" y="3496"/>
      <point x="1472" y="3496" type="curve" smooth="yes"/>
      <point x="1112" y="3496"/>
      <point x="744" y="3736"/>
      <point x="744" y="4232" type="curve" smooth="yes"/>
      <point x="744" y="5168"/>
      <point x="1744" y="6080"/>
      <point x="3000" y="6080" type="curve" smooth="yes"/>
      <point x="3888" y="6080"/>
      <point x="4736" y="5720"/>
      <point x="4736" y="4840" type="curve" smooth="yes"/>
      <point x="4736" y="3880"/>
      <point x="3168" y="3112"/>
      <point x="2528" y="2680" type="curve" smooth="yes"/>
      <point x="512" y="1200" type="line"/>
      <point x="4048" y="1200" type="line"/>
      <point x="4184" y="1800" type="line"/>
      <point x="4200" y="1800" type="line"/>
      <point x="3792" y="0" type="line"/>
      <point x="-328" y="0" type="line"/>
      <point x="-136" y="800" type="line"/>
      <point x="2016" y="2328" type="line" smooth="yes"/>
      <point x="2880" y="2920"/>
      <point x="3448" y="3880"/>
      <point x="3448" y="4672" type="curve" smooth="yes"/>
      <point x="3448" y="5424"/>
      <point x="3168" y="5920"/>
      <point x="2504" y="5920" type="curve" smooth="yes"/>
      <point x="1656" y="5920"/>
      <point x="784" y="5096"/>
    </contour>
  </outline>
</glyph>
<glyph name="three" format="2">
  <advance width="4608"/>
  <unicode hex="0033"/>
  <outline>
    <contour>
      <point x="1136" y="4840" type="curve" smooth="yes"/>
      <point x="1136" y="5496"/>
      <point x="1912" y="6072"/>
      <point x="2888" y="6072" type="curve" smooth="yes"/>
      <point x="3776" y="6072"/>
      <point x="4688" y="5816"/>
      <point x="4688" y="4896" type="curve" smooth="yes"/>
      <point x="4688" y="3976"/>
      <point x="3712" y="3248"/>
      <point x="1864" y="3248" type="curve"/>
      <point x="1864" y="3264" type="line"/>
      <point x="3136" y="3264"/>
      <point x="3440" y="4496"/>
      <point x="3440" y="5088" type="curve" smooth="yes"/>
      <point x="3440" y="5720"/>
      <point x="3240" y="6032"/>
      <point x="2688" y="6032" type="curve" smooth="yes"/>
      <point x="2056" y="6032"/>
      <point x="1360" y="5624"/>
      <point x="1216" y="5120" type="curve"/>
      <point x="1296" y="5248"/>
      <point x="1536" y="5432"/>
      <point x="1840" y="5432" type="curve" smooth="yes"/>
      <point x="2208" y="5432"/>
      <point x="2448" y="5152"/>
      <point x="2448" y="4792" type="curve" smooth="yes"/>
      <point x="2448" y="4392"/>
      <point x="2112" y="4144"/>
      <point x="1792" y="4144" type="curve" smooth="yes"/>
      <point x="1432" y="4144"/>
      <point x="1136" y="4432"/>
    </contour>
    <contour>
      <point x="40" y="1264" type="curve" smooth="yes"/>
      <point x="40" y="1712"/>
      <point x="320" y="2008"/>
      <point x="720" y="2008" type="curve" smooth="yes"/>
      <point x="1080" y="2008"/>
      <point x="1352" y="1728"/>
      <point x="1352" y="1360" type="curve" smooth="yes"/>
      <point x="1352" y="984"/>
      <point x="1048" y="720"/>
      <point x="696" y="720" type="curve" smooth="yes"/>
      <point x="368" y="720"/>
      <point x="144" y="928"/>
      <point x="80" y="1104" type="curve"/>
      <point x="144" y="536"/>
      <point x="728" y="-56"/>
      <point x="1688" y="-56" type="curve" smooth="yes"/>
      <point x="2640" y="-56"/>
      <point x="3000" y="1208"/>
      <point x="3000" y="2040" type="curve" smooth="yes"/>
      <point x="3000" y="2672"/>
      <point x="2776" y="3240"/>
      <point x="1864" y="3240" type="curve"/>
      <point x="1864" y="3256" type="line"/>
      <point x="3552" y="3256"/>
      <point x="4248" y="2760"/>
      <point x="4248" y="1840" type="curve" smooth="yes"/>
      <point x="4248" y="680"/>
      <point x="2976" y="-80"/>
      <point x="1768" y="-80" type="curve" smooth="yes"/>
      <point x="592" y="-80"/>
      <point x="40" y="648"/>
    </contour>
  </outline>
</glyph>
<glyph name="four" format="2">
  <advance width="2704"/>
  <unicode hex="0034"/>
  <outline>
    <contour>
      <point x="2273" y="8" type="line"/>
      <point x="2273" y="0" type="line"/>
      <point x="942" y="0" type="line"/>
      <point x="942" y="8" type="line"/>
    </contour>
    <contour>
      <point x="2664" y="3072" type="line"/>
      <point x="1924" y="0" type="line"/>
      <point x="1290" y="0" type="line"/>
      <point x="1944" y="2852" type="line"/>
      <point x="203" y="884" type="line"/>
      <point x="2580" y="884" type="line"/>
      <point x="2580" y="876" type="line"/>
      <point x="184" y="876" type="line"/>
      <point x="2132" y="3072" type="line"/>
    </contour>
  </outline>
</glyph>
<glyph name="five" format="2">
  <advance width="4504"/>
  <unicode hex="0035"/>
  <outline>
    <contour>
      <point x="4224" y="2200" type="curve" smooth="yes"/>
      <point x="4224" y="840"/>
      <point x="2776" y="-80"/>
      <point x="1568" y="-80" type="curve" smooth="yes"/>
      <point x="592" y="-80"/>
      <point x="0" y="496"/>
      <point x="0" y="1152" type="curve" smooth="yes"/>
      <point x="0" y="1560"/>
      <point x="296" y="1848"/>
      <point x="656" y="1848" type="curve" smooth="yes"/>
      <point x="976" y="1848"/>
      <point x="1312" y="1600"/>
      <point x="1312" y="1200" type="curve" smooth="yes"/>
      <point x="1312" y="800"/>
      <point x="1008" y="560"/>
      <point x="656" y="560" type="curve" smooth="yes"/>
      <point x="328" y="560"/>
      <point x="80" y="792"/>
      <point x="32" y="968" type="curve"/>
      <point x="128" y="408"/>
      <point x="696" y="-48"/>
      <point x="1488" y="-48" type="curve" smooth="yes"/>
      <point x="2520" y="-48"/>
      <point x="2944" y="1488"/>
      <point x="2944" y="2400" type="curve" smooth="yes"/>
      <point x="2944" y="3072"/>
      <point x="2696" y="3592"/>
      <point x="2184" y="3592" type="curve" smooth="yes"/>
      <point x="1592" y="3592"/>
      <point x="976" y="3304"/>
      <point x="704" y="2896" type="curve"/>
      <point x="688" y="2896" type="line"/>
      <point x="976" y="3352"/>
      <point x="1672" y="3640"/>
      <point x="2400" y="3640" type="curve" smooth="yes"/>
      <point x="3448" y="3640"/>
      <point x="4224" y="3240"/>
    </contour>
    <contour>
      <point x="4584" y="4800" type="line"/>
      <point x="1352" y="4800" type="line"/>
      <point x="696" y="2896" type="line"/>
      <point x="680" y="2896" type="line"/>
      <point x="1736" y="6000" type="line"/>
      <point x="4832" y="6000" type="line"/>
      <point x="4928" y="6440" type="line"/>
      <point x="4944" y="6440" type="line"/>
    </contour>
  </outline>
</glyph>
<glyph name="seven" format="2">
  <advance width="4448"/>
  <unicode hex="0037"/>
  <outline>
    <contour>
      <point x="1136" y="688" type="curve" smooth="yes"/>
      <point x="1136" y="1400"/>
      <point x="2176" y="2216"/>
      <point x="2872" y="3048" type="curve" smooth="yes"/>
      <point x="3320" y="3576"/>
      <point x="3744" y="4136"/>
      <point x="4240" y="4760" type="curve"/>
      <point x="1072" y="4760" type="line"/>
      <point x="928" y="4160" type="line"/>
      <point x="912" y="4160" type="line"/>
      <point x="1328" y="6000" type="line"/>
      <point x="5248" y="6000" type="line"/>
      <point x="5248" y="6000"/>
      <point x="3856" y="4192"/>
      <point x="3040" y="3200" type="curve" smooth="yes"/>
      <point x="2472" y="2496"/>
      <point x="2032" y="2056"/>
      <point x="2032" y="1696" type="curve" smooth="yes"/>
      <point x="2032" y="1312"/>
      <point x="2616" y="1224"/>
      <point x="2616" y="664" type="curve" smooth="yes"/>
      <point x="2616" y="248"/>
      <point x="2312" y="-80"/>
      <point x="1840" y="-80" type="curve" smooth="yes"/>
      <point x="1448" y="-80"/>
      <point x="1136" y="176"/>
    </contour>
  </outline>
</glyph>
<glyph name="less" format="2">
  <advance width="2292"/>
  <unicode hex="003C"/>
  <outline>
    <contour>
      <point x="450" y="1586" type="line"/>
      <point x="450" y="1594" type="line"/>
      <point x="2416" y="2458" type="line"/>
      <point x="2416" y="2450" type="line"/>
    </contour>
    <contour>
      <point x="450" y="1582" type="line"/>
      <point x="450" y="1590" type="line"/>
      <point x="2048" y="724" type="line"/>
      <point x="2048" y="716" type="line"/>
    </contour>
  </outline>
</glyph>
<glyph name="question" format="2">
  <advance width="2395"/>
  <unicode hex="003F"/>
  <outline>
    <contour>
      <point x="1204" y="1444" type="curve"/>
      <point x="1108" y="1000" type="line"/>
      <point x="1100" y="1000" type="line"/>
      <point x="1198" y="1450" type="line"/>
      <point x="1678" y="1576"/>
      <point x="1942" y="2117"/>
      <point x="1942" y="2580" type="curve" smooth="yes"/>
      <point x="1942" y="2842"/>
      <point x="1864" y="3100"/>
      <point x="1582" y="3100" type="curve" smooth="yes"/>
      <point x="1115" y="3100"/>
      <point x="731" y="2759"/>
      <point x="690" y="2482" type="curve"/>
      <point x="729" y="2568"/>
      <point x="841" y="2662"/>
      <point x="992" y="2662" type="curve" smooth="yes"/>
      <point x="1152" y="2662"/>
      <point x="1307" y="2539"/>
      <point x="1307" y="2355" type="curve" smooth="yes"/>
      <point x="1307" y="2150"/>
      <point x="1135" y="2023"/>
      <point x="971" y="2023" type="curve" smooth="yes"/>
      <point x="767" y="2023"/>
      <point x="655" y="2171"/>
      <point x="655" y="2380" type="curve" smooth="yes"/>
      <point x="655" y="2716"/>
      <point x="1082" y="3112"/>
      <point x="1622" y="3112" type="curve" smooth="yes"/>
      <point x="2076" y="3112"/>
      <point x="2581" y="2929"/>
      <point x="2581" y="2437" type="curve" smooth="yes"/>
      <point x="2581" y="1782"/>
      <point x="1838" y="1476"/>
    </contour>
    <component base="period" xOffset="610"/>
  </outline>
</glyph>
<glyph name="at" format="2">
  <advance width="4136"/>
  <unicode hex="0040"/>
  <outline>
    <contour>
      <point x="2369" y="1464" type="curve" smooth="yes"/>
      <point x="2369" y="841"/>
      <point x="2085" y="286"/>
      <point x="1614" y="286" type="curve" smooth="yes"/>
      <point x="1270" y="286"/>
      <point x="1000" y="516"/>
      <point x="1000" y="942" type="curve" smooth="yes"/>
      <point x="1000" y="1556"/>
      <point x="1448" y="2166"/>
      <point x="1936" y="2166" type="curve" smooth="yes"/>
      <point x="2309" y="2166"/>
      <point x="2369" y="1800"/>
    </contour>
    <contour>
      <point x="2357" y="1418" type="curve" smooth="yes"/>
      <point x="2357" y="1590"/>
      <point x="2353" y="2021"/>
      <point x="2132" y="2021" type="curve" smooth="yes"/>
      <point x="1912" y="2021"/>
      <point x="1658" y="1450"/>
      <point x="1658" y="942" type="curve" smooth="yes"/>
      <point x="1658" y="668"/>
      <point x="1721" y="434"/>
      <point x="1860" y="434" type="curve" smooth="yes"/>
      <point x="2106" y="434"/>
      <point x="2357" y="914"/>
    </contour>
    <contour>
      <point x="2273" y="860" type="curve" smooth="yes"/>
      <point x="2568" y="2130" type="line"/>
      <point x="3182" y="2130" type="line"/>
      <point x="2880" y="830" type="line" smooth="yes"/>
      <point x="2852" y="702"/>
      <point x="2726" y="340"/>
      <point x="2980" y="340" type="curve" smooth="yes"/>
      <point x="3474" y="340"/>
      <point x="3904" y="933"/>
      <point x="3904" y="1642" type="curve" smooth="yes"/>
      <point x="3904" y="2384"/>
      <point x="3428" y="3228"/>
      <point x="2396" y="3228" type="curve" smooth="yes"/>
      <point x="1208" y="3228"/>
      <point x="234" y="2142"/>
      <point x="234" y="864" type="curve" smooth="yes"/>
      <point x="234" y="-418"/>
      <point x="974" y="-868"/>
      <point x="1716" y="-868" type="curve" smooth="yes"/>
      <point x="2380" y="-868"/>
      <point x="2868" y="-656"/>
      <point x="3208" y="-258" type="curve"/>
      <point x="3216" y="-262" type="line"/>
      <point x="2872" y="-664"/>
      <point x="2384" y="-876"/>
      <point x="1716" y="-876" type="curve" smooth="yes"/>
      <point x="966" y="-876"/>
      <point x="226" y="-426"/>
      <point x="226" y="864" type="curve" smooth="yes"/>
      <point x="226" y="2146"/>
      <point x="1196" y="3236"/>
      <point x="2396" y="3236" type="curve" smooth="yes"/>
      <point x="3432" y="3236"/>
      <point x="3912" y="2392"/>
      <point x="3912" y="1642" type="curve" smooth="yes"/>
      <point x="3912" y="966"/>
      <point x="3530" y="278"/>
      <point x="2768" y="278" type="curve" smooth="yes"/>
      <point x="2281" y="278"/>
      <point x="2215" y="606"/>
    </contour>
  </outline>
</glyph>
<glyph name="A" format="2">
  <advance width="6176"/>
  <unicode hex="0041"/>
  <outline>
    <contour>
      <point x="-384" y="16" type="line"/>
      <point x="1376" y="16" type="line"/>
      <point x="1376" y="0" type="line"/>
      <point x="-384" y="0" type="line"/>
    </contour>
    <contour>
      <point x="2816" y="16" type="line"/>
      <point x="5616" y="16" type="line"/>
      <point x="5616" y="0" type="line"/>
      <point x="2816" y="0" type="line"/>
    </contour>
    <contour>
      <point x="1504" y="1968" type="line"/>
      <point x="4096" y="1968" type="line"/>
      <point x="4096" y="1952" type="line"/>
      <point x="1504" y="1952" type="line"/>
    </contour>
    <contour>
      <point x="3232" y="4936" type="line"/>
      <point x="384" y="0" type="line"/>
      <point x="368" y="0" type="line"/>
      <point x="3888" y="6120" type="line"/>
      <point x="4304" y="6120" type="line"/>
      <point x="5056" y="0" type="line"/>
      <point x="3744" y="0" type="line"/>
    </contour>
  </outline>
</glyph>
<glyph name="B" format="2">
  <advance width="5456"/>
  <unicode hex="0042"/>
  <outline>
    <contour>
      <point x="2336" y="0" type="curve" smooth="yes"/>
      <point x="-384" y="0" type="line"/>
      <point x="-384" y="16" type="line"/>
      <point x="2336" y="16" type="line" smooth="yes"/>
      <point x="3104" y="16"/>
      <point x="3696" y="968"/>
      <point x="3696" y="2080" type="curve" smooth="yes"/>
      <point x="3696" y="2792"/>
      <point x="3392" y="3072"/>
      <point x="2864" y="3072" type="curve" smooth="yes"/>
      <point x="1936" y="3072" type="line"/>
      <point x="1936" y="3088" type="line"/>
      <point x="3024" y="3088" type="line" smooth="yes"/>
      <point x="4152" y="3088"/>
      <point x="5056" y="2760"/>
      <point x="5056" y="1840" type="curve" smooth="yes"/>
      <point x="5056" y="640"/>
      <point x="3744" y="0"/>
    </contour>
    <contour>
      <point x="1744" y="6000" type="line"/>
      <point x="2976" y="6000" type="line"/>
      <point x="1584" y="0" type="line"/>
      <point x="336" y="0" type="line"/>
    </contour>
    <contour>
      <point x="2896" y="3072" type="curve" smooth="yes"/>
      <point x="1936" y="3072" type="line"/>
      <point x="1936" y="3088" type="line"/>
      <point x="2896" y="3088" type="line" smooth="yes"/>
      <point x="3504" y="3088"/>
      <point x="4224" y="3888"/>
      <point x="4224" y="5000" type="curve" smooth="yes"/>
      <point x="4224" y="5512"/>
      <point x="4008" y="5984"/>
      <point x="3480" y="5984" type="curve" smooth="yes"/>
      <point x="1024" y="5984" type="line"/>
      <point x="1024" y="6000" type="line"/>
      <point x="3504" y="6000" type="line" smooth="yes"/>
      <point x="4872" y="6000"/>
      <point x="5504" y="5640"/>
      <point x="5504" y="4760" type="curve" smooth="yes"/>
      <point x="5504" y="3720"/>
      <point x="4184" y="3072"/>
    </contour>
  </outline>
</glyph>
<glyph name="C" format="2">
  <advance width="5560"/>
  <unicode hex="0043"/>
  <outline>
    <contour>
      <point x="2656" y="-80" type="curve" smooth="yes"/>
      <point x="1312" y="-80"/>
      <point x="416" y="736"/>
      <point x="416" y="2040" type="curve" smooth="yes"/>
      <point x="416" y="4224"/>
      <point x="2040" y="6080"/>
      <point x="3984" y="6080" type="curve" smooth="yes"/>
      <point x="5008" y="6080"/>
      <point x="5640" y="5384"/>
      <point x="5680" y="4240" type="curve"/>
      <point x="5664" y="4240" type="line"/>
      <point x="5600" y="5488"/>
      <point x="4880" y="6024"/>
      <point x="4176" y="6024" type="curve" smooth="yes"/>
      <point x="2584" y="6024"/>
      <point x="1744" y="3136"/>
      <point x="1744" y="1480" type="curve" smooth="yes"/>
      <point x="1744" y="704"/>
      <point x="1984" y="-32"/>
      <point x="2816" y="-32" type="curve" smooth="yes"/>
      <point x="3768" y="-32"/>
      <point x="4648" y="736"/>
      <point x="5168" y="1760" type="curve"/>
      <point x="5184" y="1760" type="line"/>
      <point x="4704" y="776"/>
      <point x="3800" y="-80"/>
    </contour>
    <contour>
      <point x="5664" y="4240" type="line"/>
      <point x="5648" y="4472" type="line"/>
      <point x="5584" y="4888"/>
      <point x="5496" y="5192"/>
      <point x="5296" y="5448" type="curve"/>
      <point x="6064" y="6000" type="line"/>
      <point x="6080" y="6000" type="line"/>
      <point x="5680" y="4240" type="line"/>
    </contour>
    <contour>
      <point x="5168" y="1760" type="line"/>
      <point x="5184" y="1760" type="line"/>
      <point x="4736" y="0" type="line"/>
      <point x="4720" y="0" type="line"/>
      <point x="4224" y="528" type="line"/>
      <point x="4488" y="768"/>
      <point x="4752" y="1040"/>
      <point x="5024" y="1488" type="curve"/>
    </contour>
  </outline>
</glyph>
<glyph name="E" format="2">
  <advance width="2524"/>
  <unicode hex="0045"/>
  <outline>
    <contour>
      <point x="498" y="3072" type="line"/>
      <point x="2832" y="3072" type="line"/>
      <point x="2636" y="2232" type="line"/>
      <point x="2628" y="2232" type="line"/>
      <point x="2669" y="2670"/>
      <point x="2452" y="3064"/>
      <point x="1972" y="3064" type="curve" smooth="yes"/>
      <point x="498" y="3064" type="line"/>
    </contour>
    <contour>
      <point x="866" y="3072" type="line"/>
      <point x="1502" y="3072" type="line"/>
      <point x="788" y="0" type="line"/>
      <point x="154" y="0" type="line"/>
    </contour>
    <contour>
      <point x="1313" y="1586" type="curve" smooth="yes"/>
      <point x="1042" y="1586" type="line"/>
      <point x="1042" y="1594" type="line"/>
      <point x="1313" y="1594" type="line" smooth="yes"/>
      <point x="1547" y="1594"/>
      <point x="1835" y="1807"/>
      <point x="1958" y="2081" type="curve"/>
      <point x="1966" y="2081" type="line"/>
      <point x="1735" y="1077" type="line"/>
      <point x="1727" y="1077" type="line"/>
      <point x="1727" y="1351"/>
      <point x="1547" y="1586"/>
    </contour>
    <contour>
      <point x="2160" y="0" type="line"/>
      <point x="-194" y="0" type="line"/>
      <point x="-194" y="8" type="line"/>
      <point x="1259" y="8" type="line" smooth="yes"/>
      <point x="1821" y="8"/>
      <point x="2186" y="402"/>
      <point x="2366" y="922" type="curve"/>
      <point x="2374" y="922" type="line"/>
    </contour>
  </outline>
</glyph>
<glyph name="F" format="2">
  <advance width="4728"/>
  <unicode hex="0046"/>
  <outline>
    <contour>
      <point x="2416" y="2976" type="curve" smooth="yes"/>
      <point x="2048" y="2976" type="line"/>
      <point x="2048" y="2992" type="line"/>
      <point x="2416" y="2992" type="line" smooth="yes"/>
      <point x="3024" y="2992"/>
      <point x="3568" y="3408"/>
      <point x="3792" y="3944" type="curve"/>
      <point x="3808" y="3944" type="line"/>
      <point x="3360" y="1984" type="line"/>
      <point x="3344" y="1984" type="line"/>
      <point x="3344" y="2520"/>
      <point x="3032" y="2976"/>
    </contour>
    <contour>
      <point x="-384" y="16" type="line"/>
      <point x="2336" y="16" type="line"/>
      <point x="2336" y="0" type="line"/>
      <point x="-384" y="0" type="line"/>
    </contour>
    <contour>
      <point x="1696" y="6000" type="line"/>
      <point x="2928" y="6000" type="line"/>
      <point x="1536" y="0" type="line"/>
      <point x="304" y="0" type="line"/>
    </contour>
    <contour>
      <point x="976" y="6000" type="line"/>
      <point x="5408" y="6000" type="line"/>
      <point x="5024" y="4360" type="line"/>
      <point x="5008" y="4360" type="line"/>
      <point x="5088" y="5216"/>
      <point x="4712" y="5984"/>
      <point x="3776" y="5984" type="curve" smooth="yes"/>
      <point x="976" y="5984" type="line"/>
    </contour>
  </outline>
</glyph>
<glyph name="G" format="2">
  <advance width="780"/>
  <unicode hex="0047"/>
  <outline>
    <contour>
      <point x="536" y="284" type="line"/>
      <point x="700" y="284" type="line"/>
      <point x="670" y="165" type="line"/>
      <point x="625" y="102"/>
      <point x="495" y="-10"/>
      <point x="332" y="-10" type="curve" smooth="yes"/>
      <point x="169" y="-10"/>
      <point x="52" y="82"/>
      <point x="52" y="255" type="curve" smooth="yes"/>
      <point x="52" y="538"/>
      <point x="274" y="760"/>
      <point x="512" y="760" type="curve" smooth="yes"/>
      <point x="640" y="760"/>
      <point x="728" y="673"/>
      <point x="730" y="530" type="curve"/>
      <point x="728" y="530" type="line"/>
      <point x="726" y="673"/>
      <point x="639" y="752"/>
      <point x="538" y="752" type="curve" smooth="yes"/>
      <point x="334" y="752"/>
      <point x="218" y="412"/>
      <point x="218" y="195" type="curve" smooth="yes"/>
      <point x="218" y="93"/>
      <point x="241" y="-8"/>
      <point x="330" y="-8" type="curve" smooth="yes"/>
      <point x="419" y="-8"/>
      <point x="469" y="83"/>
      <point x="494" y="125" type="curve"/>
    </contour>
    <contour>
      <point x="438" y="286" type="line"/>
      <point x="758" y="286" type="line"/>
      <point x="758" y="284" type="line"/>
      <point x="438" y="284" type="line"/>
    </contour>
    <contour>
      <point x="778" y="750" type="line"/>
      <point x="780" y="750" type="line"/>
      <point x="730" y="530" type="line"/>
      <point x="728" y="530" type="line"/>
      <point x="726" y="558" type="line"/>
      <point x="722" y="598"/>
      <point x="706" y="651"/>
      <point x="676" y="687" type="curve"/>
    </contour>
  </outline>
</glyph>
<glyph name="H" format="2">
  <advance width="6216"/>
  <unicode hex="0048"/>
  <outline>
    <contour>
      <point x="3056" y="16" type="line"/>
      <point x="5664" y="16" type="line"/>
      <point x="5664" y="0" type="line"/>
      <point x="3056" y="0" type="line"/>
    </contour>
    <contour>
      <point x="4384" y="6000" type="line"/>
      <point x="6976" y="6000" type="line"/>
      <point x="6976" y="5984" type="line"/>
      <point x="4384" y="5984" type="line"/>
    </contour>
    <contour>
      <point x="5056" y="6000" type="line"/>
      <point x="6304" y="6000" type="line"/>
      <point x="4944" y="0" type="line"/>
      <point x="3696" y="0" type="line"/>
    </contour>
    <contour>
      <point x="-336" y="16" type="line"/>
      <point x="2256" y="16" type="line"/>
      <point x="2256" y="0" type="line"/>
      <point x="-336" y="0" type="line"/>
    </contour>
    <contour>
      <point x="976" y="6000" type="line"/>
      <point x="3584" y="6000" type="line"/>
      <point x="3584" y="5984" type="line"/>
      <point x="976" y="5984" type="line"/>
    </contour>
    <contour>
      <point x="1696" y="6000" type="line"/>
      <point x="2944" y="6000" type="line"/>
      <point x="1584" y="0" type="line"/>
      <point x="336" y="0" type="line"/>
    </contour>
    <contour>
      <point x="1760" y="2968" type="line"/>
      <point x="4640" y="2968" type="line"/>
      <point x="4640" y="2952" type="line"/>
      <point x="1760" y="2952" type="line"/>
    </contour>
  </outline>
</glyph>
<glyph name="I" format="2">
  <advance width="407"/>
  <unicode hex="0049"/>
  <outline>
    <contour>
      <point x="-42" y="2" type="line"/>
      <point x="338" y="2" type="line"/>
      <point x="338" y="0" type="line"/>
      <point x="-42" y="0" type="line"/>
    </contour>
    <contour>
      <point x="122" y="750" type="line"/>
      <point x="502" y="750" type="line"/>
      <point x="502" y="748" type="line"/>
      <point x="122" y="748" type="line"/>
    </contour>
    <contour>
      <point x="238" y="750" type="line"/>
      <point x="392" y="750" type="line"/>
      <point x="222" y="0" type="line"/>
      <point x="68" y="0" type="line"/>
    </contour>
  </outline>
</glyph>
<glyph name="J" format="2">
  <advance width="4184"/>
  <unicode hex="004A"/>
  <outline>
    <contour>
      <point x="1824" y="6000" type="line"/>
      <point x="4944" y="6000" type="line"/>
      <point x="4944" y="5984" type="line"/>
      <point x="1824" y="5984" type="line"/>
    </contour>
    <contour>
      <point x="-224" y="672" type="curve"/>
      <point x="-160" y="240"/>
      <point x="272" y="-208"/>
      <point x="864" y="-208" type="curve" smooth="yes"/>
      <point x="1352" y="-208"/>
      <point x="1632" y="400"/>
      <point x="1888" y="1520" type="curve" smooth="yes"/>
      <point x="2912" y="6000" type="line"/>
      <point x="4144" y="6000" type="line"/>
      <point x="3104" y="1352" type="line"/>
      <point x="2584" y="592"/>
      <point x="1960" y="-240"/>
      <point x="992" y="-240" type="curve" smooth="yes"/>
      <point x="216" y="-240"/>
      <point x="-256" y="280"/>
      <point x="-256" y="840" type="curve" smooth="yes"/>
      <point x="-256" y="1256"/>
      <point x="40" y="1600"/>
      <point x="480" y="1600" type="curve" smooth="yes"/>
      <point x="840" y="1600"/>
      <point x="1168" y="1336"/>
      <point x="1168" y="888" type="curve" smooth="yes"/>
      <point x="1168" y="456"/>
      <point x="824" y="184"/>
      <point x="464" y="184" type="curve" smooth="yes"/>
      <point x="160" y="184"/>
      <point x="-152" y="400"/>
    </contour>
  </outline>
</glyph>
<glyph name="K" format="2">
  <advance width="759"/>
  <unicode hex="004B"/>
  <outline>
    <contour>
      <point x="-42" y="2" type="line"/>
      <point x="282" y="2" type="line"/>
      <point x="282" y="0" type="line"/>
      <point x="-42" y="0" type="line"/>
    </contour>
    <contour>
      <point x="122" y="750" type="line"/>
      <point x="458" y="750" type="line"/>
      <point x="458" y="748" type="line"/>
      <point x="122" y="748" type="line"/>
    </contour>
    <contour>
      <point x="212" y="750" type="line"/>
      <point x="368" y="750" type="line"/>
      <point x="198" y="0" type="line"/>
      <point x="42" y="0" type="line"/>
    </contour>
    <contour>
      <point x="151" y="217" type="line"/>
      <point x="148" y="217" type="line"/>
      <point x="713" y="749" type="line"/>
      <point x="716" y="749" type="line"/>
    </contour>
    <contour>
      <point x="340" y="2" type="line"/>
      <point x="698" y="2" type="line"/>
      <point x="698" y="0" type="line"/>
      <point x="340" y="0" type="line"/>
    </contour>
    <contour>
      <point x="820" y="748" type="line"/>
      <point x="580" y="748" type="line"/>
      <point x="580" y="750" type="line"/>
      <point x="820" y="750" type="line"/>
    </contour>
    <contour>
      <point x="614" y="0" type="line"/>
      <point x="443" y="0" type="line"/>
      <point x="318" y="376" type="line"/>
      <point x="446" y="490" type="line"/>
    </contour>
  </outline>
</glyph>
<glyph name="M" format="2">
  <advance width="7136"/>
  <unicode hex="004D"/>
  <outline>
    <contour>
      <point x="4144" y="16" type="line"/>
      <point x="6576" y="16" type="line"/>
      <point x="6576" y="0" type="line"/>
      <point x="4144" y="0" type="line"/>
    </contour>
    <contour>
      <point x="7200" y="5984" type="line"/>
      <point x="5936" y="0" type="line"/>
      <point x="4704" y="0" type="line"/>
      <point x="5984" y="6000" type="line"/>
      <point x="7696" y="6000" type="line"/>
      <point x="7696" y="5984" type="line"/>
    </contour>
    <contour>
      <point x="3552" y="1696" type="line"/>
      <point x="5968" y="6000" type="line"/>
      <point x="5984" y="6000" type="line"/>
      <point x="2576" y="-80" type="line"/>
      <point x="2544" y="-80" type="line"/>
      <point x="1600" y="6000" type="line"/>
      <point x="2848" y="6000" type="line"/>
    </contour>
    <contour>
      <point x="1600" y="5984" type="line"/>
      <point x="976" y="5984" type="line"/>
      <point x="976" y="6000" type="line"/>
      <point x="1616" y="6000" type="line"/>
      <point x="344" y="0" type="line"/>
      <point x="328" y="0" type="line"/>
    </contour>
    <contour>
      <point x="-224" y="16" type="line"/>
      <point x="1040" y="16" type="line"/>
      <point x="1040" y="0" type="line"/>
      <point x="-224" y="0" type="line"/>
    </contour>
  </outline>
</glyph>
<glyph name="N" format="2">
  <advance width="3040"/>
  <unicode hex="004E"/>
  <outline>
    <contour>
      <point x="2992" y="3072" type="line"/>
      <point x="3000" y="3072" type="line"/>
      <point x="2292" y="-40" type="line"/>
      <point x="2257" y="-40" type="line"/>
      <point x="912" y="3072" type="line"/>
      <point x="1669" y="3072" type="line"/>
      <point x="2534" y="1057" type="line"/>
    </contour>
    <contour>
      <point x="2500" y="3072" type="line"/>
      <point x="3430" y="3072" type="line"/>
      <point x="3430" y="3064" type="line"/>
      <point x="2500" y="3064" type="line"/>
    </contour>
    <contour>
      <point x="-154" y="8" type="line"/>
      <point x="736" y="8" type="line"/>
      <point x="736" y="0" type="line"/>
      <point x="-154" y="0" type="line"/>
    </contour>
    <contour>
      <point x="912" y="3064" type="line"/>
      <point x="502" y="3064" type="line"/>
      <point x="502" y="3072" type="line"/>
      <point x="922" y="3072" type="line"/>
      <point x="240" y="0" type="line"/>
      <point x="232" y="0" type="line"/>
    </contour>
  </outline>
</glyph>
<glyph name="Q" format="2">
  <advance width="5896"/>
  <unicode hex="0051"/>
  <outline>
    <contour>
      <point x="3824" y="-1984" type="curve"/>
      <point x="3824" y="-2000" type="line"/>
      <point x="2040" y="-2000"/>
      <point x="1456" y="-1352"/>
      <point x="1856" y="32" type="curve"/>
      <point x="2304" y="-112"/>
      <point x="2800" y="-112"/>
      <point x="3264" y="32" type="curve"/>
      <point x="2864" y="-1424"/>
      <point x="3112" y="-1984"/>
    </contour>
    <contour>
      <point x="3904" y="6064" type="curve" smooth="yes"/>
      <point x="2672" y="6064"/>
      <point x="1696" y="3176"/>
      <point x="1696" y="1320" type="curve" smooth="yes"/>
      <point x="1696" y="504"/>
      <point x="1912" y="-64"/>
      <point x="2544" y="-64" type="curve" smooth="yes"/>
      <point x="3856" y="-64"/>
      <point x="4736" y="2824"/>
      <point x="4736" y="4680" type="curve" smooth="yes"/>
      <point x="4736" y="5336"/>
      <point x="4536" y="6064"/>
    </contour>
    <contour>
      <point x="2544" y="-80" type="curve" smooth="yes"/>
      <point x="1200" y="-80"/>
      <point x="416" y="736"/>
      <point x="416" y="2040" type="curve" smooth="yes"/>
      <point x="416" y="4384"/>
      <point x="2200" y="6080"/>
      <point x="3904" y="6080" type="curve" smooth="yes"/>
      <point x="5168" y="6080"/>
      <point x="6016" y="5264"/>
      <point x="6016" y="3960" type="curve" smooth="yes"/>
      <point x="6016" y="1616"/>
      <point x="4328" y="-80"/>
    </contour>
  </outline>
</glyph>
<glyph name="R" format="2">
  <advance width="767"/>
  <unicode hex="0052"/>
  <outline>
    <contour>
      <point x="692" y="12" type="line"/>
      <point x="656" y="-2"/>
      <point x="624" y="-8"/>
      <point x="578" y="-8" type="curve" smooth="yes"/>
      <point x="300" y="-8"/>
      <point x="598" y="384"/>
      <point x="352" y="384" type="curve" smooth="yes"/>
      <point x="272" y="384" type="line"/>
      <point x="272" y="386" type="line"/>
      <point x="398" y="386" type="line" smooth="yes"/>
      <point x="766" y="386"/>
      <point x="528" y="2"/>
      <point x="641" y="2" type="curve" smooth="yes"/>
      <point x="657" y="2"/>
      <point x="675" y="8"/>
      <point x="692" y="14" type="curve"/>
    </contour>
    <contour>
      <point x="232" y="750" type="line"/>
      <point x="388" y="750" type="line"/>
      <point x="212" y="0" type="line"/>
      <point x="58" y="0" type="line"/>
    </contour>
    <contour>
      <point x="-38" y="2" type="line"/>
      <point x="322" y="2" type="line"/>
      <point x="322" y="0" type="line"/>
      <point x="-38" y="0" type="line"/>
    </contour>
    <contour>
      <point x="398" y="384" type="curve" smooth="yes"/>
      <point x="272" y="384" type="line"/>
      <point x="272" y="386" type="line"/>
      <point x="372" y="386" type="line" smooth="yes"/>
      <point x="513" y="386"/>
      <point x="565" y="536"/>
      <point x="565" y="625" type="curve" smooth="yes"/>
      <point x="565" y="674"/>
      <point x="550" y="748"/>
      <point x="462" y="748" type="curve" smooth="yes"/>
      <point x="128" y="748" type="line"/>
      <point x="128" y="750" type="line"/>
      <point x="498" y="750" type="line" smooth="yes"/>
      <point x="629" y="750"/>
      <point x="728" y="710"/>
      <point x="728" y="600" type="curve" smooth="yes"/>
      <point x="728" y="460"/>
      <point x="599" y="384"/>
    </contour>
  </outline>
</glyph>
<glyph name="S" format="2">
  <advance width="593"/>
  <unicode hex="0053"/>
  <outline>
    <contour>
      <point x="574" y="560" type="line"/>
      <point x="562" y="608"/>
      <point x="552" y="650"/>
      <point x="516" y="696" type="curve"/>
      <point x="626" y="760" type="line"/>
      <point x="628" y="760" type="line"/>
      <point x="578" y="535" type="line"/>
      <point x="576" y="535" type="line"/>
    </contour>
    <contour>
      <point x="578" y="535" type="curve"/>
      <point x="576" y="535" type="line"/>
      <point x="560" y="665"/>
      <point x="500" y="756"/>
      <point x="378" y="756" type="curve" smooth="yes"/>
      <point x="307" y="756"/>
      <point x="236" y="708"/>
      <point x="236" y="630" type="curve" smooth="yes"/>
      <point x="236" y="460"/>
      <point x="548" y="505"/>
      <point x="548" y="250" type="curve" smooth="yes"/>
      <point x="548" y="110"/>
      <point x="417" y="-15"/>
      <point x="256" y="-15" type="curve" smooth="yes"/>
      <point x="100" y="-15"/>
      <point x="47" y="105"/>
      <point x="30" y="225" type="curve"/>
      <point x="32" y="225" type="line"/>
      <point x="47" y="113"/>
      <point x="98" y="-12"/>
      <point x="250" y="-12" type="curve" smooth="yes"/>
      <point x="351" y="-12"/>
      <point x="420" y="51"/>
      <point x="420" y="140" type="curve" smooth="yes"/>
      <point x="420" y="340"/>
      <point x="110" y="280"/>
      <point x="110" y="515" type="curve" smooth="yes"/>
      <point x="110" y="675"/>
      <point x="261" y="760"/>
      <point x="372" y="760" type="curve" smooth="yes"/>
      <point x="500" y="760"/>
      <point x="563" y="666"/>
    </contour>
    <contour>
      <point x="-20" y="-10" type="line"/>
      <point x="-22" y="-10" type="line"/>
      <point x="30" y="225" type="line"/>
      <point x="32" y="225" type="line"/>
      <point x="37" y="188" type="line"/>
      <point x="50" y="136"/>
      <point x="67" y="91"/>
      <point x="94" y="58" type="curve"/>
    </contour>
  </outline>
</glyph>
<glyph name="T" format="2">
  <advance width="672"/>
  <unicode hex="0054"/>
  <outline>
    <contour>
      <point x="93" y="2" type="line"/>
      <point x="468" y="2" type="line"/>
      <point x="468" y="0" type="line"/>
      <point x="93" y="0" type="line"/>
    </contour>
    <contour>
      <point x="372" y="750" type="line"/>
      <point x="527" y="750" type="line"/>
      <point x="353" y="0" type="line"/>
      <point x="198" y="0" type="line"/>
    </contour>
    <contour>
      <point x="587" y="748" type="curve" smooth="yes"/>
      <point x="302" y="748" type="line" smooth="yes"/>
      <point x="195" y="748"/>
      <point x="118" y="636"/>
      <point x="74" y="510" type="curve"/>
      <point x="72" y="510" type="line"/>
      <point x="127" y="750" type="line"/>
      <point x="772" y="750" type="line"/>
      <point x="718" y="510" type="line"/>
      <point x="716" y="510" type="line"/>
      <point x="730" y="637"/>
      <point x="694" y="748"/>
    </contour>
  </outline>
</glyph>
<glyph name="U" format="2">
  <advance width="5680"/>
  <unicode hex="0055"/>
  <outline>
    <contour>
      <point x="4880" y="6000" type="line"/>
      <point x="6448" y="6000" type="line"/>
      <point x="6448" y="5984" type="line"/>
      <point x="4880" y="5984" type="line"/>
    </contour>
    <contour>
      <point x="960" y="6000" type="line"/>
      <point x="3728" y="6000" type="line"/>
      <point x="3728" y="5984" type="line"/>
      <point x="960" y="5984" type="line"/>
    </contour>
    <contour>
      <point x="5712" y="6000" type="line"/>
      <point x="5728" y="6000" type="line"/>
      <point x="4768" y="1840" type="line" smooth="yes"/>
      <point x="4480" y="584"/>
      <point x="3824" y="-120"/>
      <point x="2560" y="-120" type="curve" smooth="yes"/>
      <point x="1256" y="-120"/>
      <point x="464" y="528"/>
      <point x="768" y="1840" type="curve" smooth="yes"/>
      <point x="1728" y="6000" type="line"/>
      <point x="2960" y="6000" type="line"/>
      <point x="2000" y="1920" type="line" smooth="yes"/>
      <point x="1768" y="920"/>
      <point x="1824" y="-40"/>
      <point x="2816" y="-40" type="curve" smooth="yes"/>
      <point x="3848" y="-40"/>
      <point x="4472" y="616"/>
      <point x="4752" y="1840" type="curve" smooth="yes"/>
    </contour>
  </outline>
</glyph>
<glyph name="V" format="2">
  <advance width="6136"/>
  <unicode hex="0056"/>
  <outline>
    <contour>
      <point x="6944" y="5984" type="line"/>
      <point x="5184" y="5984" type="line"/>
      <point x="5184" y="6000" type="line"/>
      <point x="6944" y="6000" type="line"/>
    </contour>
    <contour>
      <point x="3744" y="5984" type="line"/>
      <point x="944" y="5984" type="line"/>
      <point x="944" y="6000" type="line"/>
      <point x="3744" y="6000" type="line"/>
    </contour>
    <contour>
      <point x="3328" y="1112" type="line"/>
      <point x="6160" y="6000" type="line"/>
      <point x="6176" y="6000" type="line"/>
      <point x="2672" y="-64" type="line"/>
      <point x="2256" y="-64" type="line"/>
      <point x="1504" y="6000" type="line"/>
      <point x="2816" y="6000" type="line"/>
    </contour>
  </outline>
</glyph>
<glyph name="W" format="2">
  <advance width="1095"/>
  <unicode hex="0057"/>
  <outline>
    <contour>
      <point x="444" y="168" type="line"/>
      <point x="608" y="447" type="line"/>
      <point x="610" y="447" type="line"/>
      <point x="342" y="-10" type="line"/>
      <point x="298" y="-10" type="line"/>
      <point x="200" y="750" type="line"/>
      <point x="373" y="750" type="line"/>
    </contour>
    <contour>
      <point x="664" y="417" type="line"/>
      <point x="662" y="417" type="line"/>
      <point x="860" y="750" type="line"/>
      <point x="862" y="750" type="line"/>
    </contour>
    <contour>
      <point x="1196" y="748" type="line"/>
      <point x="1000" y="748" type="line"/>
      <point x="1000" y="750" type="line"/>
      <point x="1196" y="750" type="line"/>
    </contour>
    <contour>
      <point x="958" y="748" type="line"/>
      <point x="118" y="748" type="line"/>
      <point x="118" y="750" type="line"/>
      <point x="958" y="750" type="line"/>
    </contour>
    <contour>
      <point x="752" y="168" type="line"/>
      <point x="1096" y="750" type="line"/>
      <point x="1098" y="750" type="line"/>
      <point x="648" y="-10" type="line"/>
      <point x="619" y="-10" type="line"/>
      <point x="520" y="750" type="line"/>
      <point x="678" y="750" type="line"/>
    </contour>
  </outline>
</glyph>
<glyph name="X" format="2">
  <advance width="6216"/>
  <unicode hex="0058"/>
  <outline>
    <contour>
      <point x="3376" y="3016" type="line"/>
      <point x="3344" y="3016" type="line"/>
      <point x="5824" y="5984" type="line"/>
      <point x="5848" y="5984" type="line"/>
    </contour>
    <contour>
      <point x="464" y="0" type="line"/>
      <point x="432" y="0" type="line"/>
      <point x="3312" y="3336" type="line"/>
      <point x="3336" y="3336" type="line"/>
    </contour>
    <contour>
      <point x="3024" y="16" type="line"/>
      <point x="5744" y="16" type="line"/>
      <point x="5744" y="0" type="line"/>
      <point x="3024" y="0" type="line"/>
    </contour>
    <contour>
      <point x="-416" y="16" type="line"/>
      <point x="1504" y="16" type="line"/>
      <point x="1504" y="0" type="line"/>
      <point x="-416" y="0" type="line"/>
    </contour>
    <contour>
      <point x="3936" y="5984" type="line"/>
      <point x="1216" y="5984" type="line"/>
      <point x="1216" y="6000" type="line"/>
      <point x="3936" y="6000" type="line"/>
    </contour>
    <contour>
      <point x="6704" y="5984" type="line"/>
      <point x="4944" y="5984" type="line"/>
      <point x="4944" y="6000" type="line"/>
      <point x="6704" y="6000" type="line"/>
    </contour>
    <contour>
      <point x="5184" y="0" type="line"/>
      <point x="3792" y="0" type="line"/>
      <point x="1776" y="6000" type="line"/>
      <point x="3152" y="6000" type="line"/>
    </contour>
  </outline>
</glyph>
<glyph name="bracketleft" format="2">
  <advance width="370"/>
  <unicode hex="005B"/>
  <outline>
    <contour>
      <point x="200" y="780" type="line"/>
      <point x="475" y="780" type="line"/>
      <point x="475" y="778" type="line"/>
      <point x="339" y="778" type="line"/>
      <point x="131" y="-148" type="line"/>
      <point x="265" y="-148" type="line"/>
      <point x="265" y="-150" type="line"/>
      <point x="-10" y="-150" type="line"/>
    </contour>
  </outline>
</glyph>
<glyph name="asciicircum" format="2">
  <advance width="2232"/>
  <unicode hex="005E"/>
  <outline>
    <contour>
      <point x="1672" y="2962" type="line"/>
      <point x="882" y="2558" type="line"/>
      <point x="860" y="2580" type="line"/>
      <point x="1556" y="3154" type="line"/>
      <point x="1822" y="3154" type="line"/>
      <point x="2274" y="2580" type="line"/>
      <point x="2251" y="2558" type="line"/>
    </contour>
  </outline>
</glyph>
<glyph name="a" format="2">
  <advance width="5120"/>
  <unicode hex="0061"/>
  <outline>
    <contour>
      <point x="3024" y="2512" type="curve" smooth="yes"/>
      <point x="3024" y="3016"/>
      <point x="2888" y="3504"/>
      <point x="2560" y="3504" type="curve" smooth="yes"/>
      <point x="2008" y="3504"/>
      <point x="1352" y="2072"/>
      <point x="1352" y="1000" type="curve" smooth="yes"/>
      <point x="1352" y="488"/>
      <point x="1504" y="152"/>
      <point x="1792" y="152" type="curve" smooth="yes"/>
      <point x="2496" y="152"/>
      <point x="3024" y="1640"/>
    </contour>
    <contour>
      <point x="3040" y="2512" type="curve" smooth="yes"/>
      <point x="3040" y="1648"/>
      <point x="2520" y="-80"/>
      <point x="1392" y="-80" type="curve" smooth="yes"/>
      <point x="840" y="-80"/>
      <point x="120" y="240"/>
      <point x="120" y="1280" type="curve" smooth="yes"/>
      <point x="120" y="2880"/>
      <point x="1376" y="3760"/>
      <point x="2208" y="3760" type="curve" smooth="yes"/>
      <point x="2816" y="3760"/>
      <point x="3040" y="3248"/>
    </contour>
    <contour>
      <point x="4960" y="1304" type="line"/>
      <point x="4656" y="504"/>
      <point x="4104" y="-80"/>
      <point x="3336" y="-80" type="curve" smooth="yes"/>
      <point x="2840" y="-80"/>
      <point x="2648" y="144"/>
      <point x="2648" y="544" type="curve" smooth="yes"/>
      <point x="2648" y="584"/>
      <point x="2656" y="696"/>
      <point x="2672" y="760" type="curve" smooth="yes"/>
      <point x="2848" y="1440" type="line"/>
      <point x="2976" y="1968" type="line"/>
      <point x="3024" y="2336" type="line"/>
      <point x="3376" y="3680" type="line"/>
      <point x="4464" y="3680" type="line"/>
      <point x="3616" y="368" type="line" smooth="yes"/>
      <point x="3608" y="320"/>
      <point x="3600" y="264"/>
      <point x="3600" y="224" type="curve" smooth="yes"/>
      <point x="3600" y="136"/>
      <point x="3640" y="64"/>
      <point x="3744" y="64" type="curve" smooth="yes"/>
      <point x="4200" y="64"/>
      <point x="4688" y="640"/>
      <point x="4944" y="1312" type="curve"/>
    </contour>
  </outline>
</glyph>
<glyph name="b" format="2">
  <advance width="2489"/>
  <unicode hex="0062"/>
  <outline>
    <contour>
      <point x="852" y="3064" type="line"/>
      <point x="536" y="3064" type="line"/>
      <point x="536" y="3072" type="line"/>
      <point x="1429" y="3072" type="line"/>
      <point x="832" y="472" type="line"/>
      <point x="832" y="230"/>
      <point x="884" y="-32"/>
      <point x="1052" y="-32" type="curve" smooth="yes"/>
      <point x="1376" y="-32"/>
      <point x="1736" y="820"/>
      <point x="1736" y="1368" type="curve" smooth="yes"/>
      <point x="1736" y="1590"/>
      <point x="1659" y="1800"/>
      <point x="1512" y="1800" type="curve" smooth="yes"/>
      <point x="1274" y="1800"/>
      <point x="1048" y="1430"/>
      <point x="938" y="942" type="curve"/>
      <point x="930" y="942" type="line"/>
      <point x="1090" y="1648"/>
      <point x="1392" y="1922"/>
      <point x="1724" y="1922" type="curve" smooth="yes"/>
      <point x="1998" y="1922"/>
      <point x="2367" y="1794"/>
      <point x="2367" y="1270" type="curve" smooth="yes"/>
      <point x="2367" y="410"/>
      <point x="1720" y="-40"/>
      <point x="1048" y="-40" type="curve" smooth="yes"/>
      <point x="716" y="-40"/>
      <point x="450" y="152"/>
      <point x="266" y="492" type="curve"/>
    </contour>
  </outline>
</glyph>
<glyph name="c" format="2">
  <advance width="3952"/>
  <unicode hex="0063"/>
  <outline>
    <contour>
      <point x="3784" y="2928" type="curve"/>
      <point x="3712" y="3360"/>
      <point x="3296" y="3712"/>
      <point x="2720" y="3712" type="curve" smooth="yes"/>
      <point x="1808" y="3712"/>
      <point x="1352" y="2072"/>
      <point x="1352" y="1080" type="curve" smooth="yes"/>
      <point x="1352" y="408"/>
      <point x="1480" y="32"/>
      <point x="1832" y="32" type="curve" smooth="yes"/>
      <point x="2312" y="32"/>
      <point x="2928" y="368"/>
      <point x="3376" y="1144" type="curve"/>
      <point x="3392" y="1144" type="line"/>
      <point x="2944" y="368"/>
      <point x="2280" y="-80"/>
      <point x="1472" y="-80" type="curve" smooth="yes"/>
      <point x="824" y="-80"/>
      <point x="120" y="240"/>
      <point x="120" y="1240" type="curve" smooth="yes"/>
      <point x="120" y="2760"/>
      <point x="1336" y="3760"/>
      <point x="2544" y="3760" type="curve" smooth="yes"/>
      <point x="3280" y="3760"/>
      <point x="3832" y="3368"/>
      <point x="3832" y="2752" type="curve" smooth="yes"/>
      <point x="3832" y="2304"/>
      <point x="3536" y="2032"/>
      <point x="3176" y="2032" type="curve" smooth="yes"/>
      <point x="2856" y="2032"/>
      <point x="2520" y="2240"/>
      <point x="2520" y="2640" type="curve" smooth="yes"/>
      <point x="2520" y="3040"/>
      <point x="2896" y="3264"/>
      <point x="3168" y="3264" type="curve" smooth="yes"/>
      <point x="3520" y="3264"/>
      <point x="3704" y="3120"/>
    </contour>
  </outline>
</glyph>
<glyph name="d" format="2">
  <advance width="650"/>
  <unicode hex="0064"/>
  <outline>
    <contour>
      <point x="630" y="163" type="line"/>
      <point x="592" y="63"/>
      <point x="523" y="-10"/>
      <point x="427" y="-10" type="curve" smooth="yes"/>
      <point x="365" y="-10"/>
      <point x="333" y="13"/>
      <point x="333" y="73" type="curve" smooth="yes"/>
      <point x="333" y="78"/>
      <point x="335" y="89"/>
      <point x="336" y="95" type="curve" smooth="yes"/>
      <point x="356" y="182" type="line"/>
      <point x="373" y="250" type="line"/>
      <point x="378" y="290" type="line"/>
      <point x="482" y="748" type="line"/>
      <point x="390" y="748" type="line"/>
      <point x="390" y="750" type="line"/>
      <point x="622" y="750" type="line"/>
      <point x="462" y="46" type="line" smooth="yes"/>
      <point x="461" y="40"/>
      <point x="460" y="33"/>
      <point x="460" y="28" type="curve" smooth="yes"/>
      <point x="460" y="17"/>
      <point x="464" y="6"/>
      <point x="478" y="6" type="curve" smooth="yes"/>
      <point x="533" y="6"/>
      <point x="597" y="78"/>
      <point x="628" y="164" type="curve"/>
    </contour>
    <contour>
      <point x="378" y="314" type="curve" smooth="yes"/>
      <point x="378" y="377"/>
      <point x="361" y="438"/>
      <point x="320" y="438" type="curve" smooth="yes"/>
      <point x="251" y="438"/>
      <point x="169" y="259"/>
      <point x="169" y="125" type="curve" smooth="yes"/>
      <point x="169" y="61"/>
      <point x="188" y="19"/>
      <point x="224" y="19" type="curve" smooth="yes"/>
      <point x="312" y="19"/>
      <point x="378" y="205"/>
    </contour>
    <contour>
      <point x="380" y="314" type="curve" smooth="yes"/>
      <point x="380" y="206"/>
      <point x="315" y="-10"/>
      <point x="174" y="-10" type="curve" smooth="yes"/>
      <point x="105" y="-10"/>
      <point x="15" y="30"/>
      <point x="15" y="160" type="curve" smooth="yes"/>
      <point x="15" y="360"/>
      <point x="172" y="470"/>
      <point x="276" y="470" type="curve" smooth="yes"/>
      <point x="352" y="470"/>
      <point x="380" y="406"/>
    </contour>
  </outline>
</glyph>
<glyph name="e" format="2">
  <advance width="4072"/>
  <unicode hex="0065"/>
  <outline>
    <contour>
      <point x="1352" y="928" type="curve" smooth="yes"/>
      <point x="1352" y="456"/>
      <point x="1480" y="0"/>
      <point x="1872" y="0" type="curve" smooth="yes"/>
      <point x="2504" y="0"/>
      <point x="3176" y="536"/>
      <point x="3536" y="1144" type="curve"/>
      <point x="3552" y="1144" type="line"/>
      <point x="3200" y="528"/>
      <point x="2480" y="-80"/>
      <point x="1592" y="-80" type="curve" smooth="yes"/>
      <point x="824" y="-80"/>
      <point x="120" y="280"/>
      <point x="120" y="1240" type="curve" smooth="yes"/>
      <point x="120" y="2744"/>
      <point x="1400" y="3760"/>
      <point x="2568" y="3760" type="curve" smooth="yes"/>
      <point x="3344" y="3760"/>
      <point x="3952" y="3512"/>
      <point x="3952" y="2936" type="curve" smooth="yes"/>
      <point x="3952" y="1816"/>
      <point x="2128" y="1696"/>
      <point x="1240" y="1696" type="curve"/>
      <point x="1240" y="1712" type="line"/>
      <point x="1832" y="1712"/>
      <point x="2904" y="1984"/>
      <point x="2904" y="3096" type="curve" smooth="yes"/>
      <point x="2904" y="3392"/>
      <point x="2848" y="3744"/>
      <point x="2624" y="3744" type="curve" smooth="yes"/>
      <point x="2072" y="3744"/>
      <point x="1352" y="2160"/>
    </contour>
  </outline>
</glyph>
<glyph name="f" format="2">
  <advance width="415"/>
  <unicode hex="0066"/>
  <outline>
    <contour>
      <point x="69" y="460" type="line"/>
      <point x="434" y="460" type="line"/>
      <point x="434" y="458" type="line"/>
      <point x="69" y="458" type="line"/>
    </contour>
    <contour>
      <point x="568" y="672" type="curve"/>
      <point x="558" y="712"/>
      <point x="508" y="757"/>
      <point x="442" y="757" type="curve" smooth="yes"/>
      <point x="372" y="757"/>
      <point x="326" y="662"/>
      <point x="304" y="540" type="curve" smooth="yes"/>
      <point x="206" y="-12" type="line" smooth="yes"/>
      <point x="178" y="-172"/>
      <point x="68" y="-260"/>
      <point x="-62" y="-260" type="curve" smooth="yes"/>
      <point x="-158" y="-260"/>
      <point x="-208" y="-198"/>
      <point x="-208" y="-146" type="curve" smooth="yes"/>
      <point x="-208" y="-95"/>
      <point x="-176" y="-64"/>
      <point x="-131" y="-64" type="curve" smooth="yes"/>
      <point x="-91" y="-64"/>
      <point x="-50" y="-88"/>
      <point x="-50" y="-138" type="curve" smooth="yes"/>
      <point x="-50" y="-188"/>
      <point x="-86" y="-216"/>
      <point x="-130" y="-216" type="curve" smooth="yes"/>
      <point x="-162" y="-216"/>
      <point x="-190" y="-196"/>
      <point x="-200" y="-172" type="curve"/>
      <point x="-190" y="-212"/>
      <point x="-140" y="-257"/>
      <point x="-74" y="-257" type="curve" smooth="yes"/>
      <point x="-4" y="-257"/>
      <point x="42" y="-162"/>
      <point x="64" y="-40" type="curve" smooth="yes"/>
      <point x="162" y="512" type="line" smooth="yes"/>
      <point x="190" y="672"/>
      <point x="300" y="760"/>
      <point x="430" y="760" type="curve" smooth="yes"/>
      <point x="526" y="760"/>
      <point x="575" y="698"/>
      <point x="575" y="646" type="curve" smooth="yes"/>
      <point x="575" y="595"/>
      <point x="543" y="564"/>
      <point x="498" y="564" type="curve" smooth="yes"/>
      <point x="458" y="564"/>
      <point x="417" y="588"/>
      <point x="417" y="638" type="curve" smooth="yes"/>
      <point x="417" y="688"/>
      <point x="454" y="716"/>
      <point x="498" y="716" type="curve" smooth="yes"/>
      <point x="530" y="716"/>
      <point x="558" y="696"/>
    </contour>
  </outline>
</glyph>
<glyph name="h" format="2">
  <advance width="4960"/>
  <unicode hex="0068"/>
  <outline>
    <contour>
      <point x="3016" y="2448" type="line" smooth="yes"/>
      <point x="3224" y="3056"/>
      <point x="3296" y="3656"/>
      <point x="3008" y="3656" type="curve" smooth="yes"/>
      <point x="2384" y="3656"/>
      <point x="1872" y="2608"/>
      <point x="1584" y="1384" type="curve"/>
      <point x="1568" y="1384" type="line"/>
      <point x="1888" y="2632"/>
      <point x="2320" y="3760"/>
      <point x="3264" y="3760" type="curve" smooth="yes"/>
      <point x="4080" y="3760"/>
      <point x="4416" y="3216"/>
      <point x="4168" y="2464" type="curve" smooth="yes"/>
      <point x="3448" y="312" type="line" smooth="yes"/>
      <point x="3432" y="264"/>
      <point x="3424" y="208"/>
      <point x="3424" y="168" type="curve" smooth="yes"/>
      <point x="3424" y="80"/>
      <point x="3472" y="24"/>
      <point x="3576" y="24" type="curve" smooth="yes"/>
      <point x="4024" y="24"/>
      <point x="4504" y="544"/>
      <point x="4784" y="1312" type="curve"/>
      <point x="4800" y="1304" type="line"/>
      <point x="4496" y="504"/>
      <point x="4024" y="-80"/>
      <point x="3256" y="-80" type="curve" smooth="yes"/>
      <point x="2720" y="-80"/>
      <point x="2432" y="144"/>
      <point x="2432" y="568" type="curve" smooth="yes"/>
      <point x="2432" y="688"/>
      <point x="2456" y="784"/>
      <point x="2472" y="856" type="curve" smooth="yes"/>
    </contour>
    <contour>
      <point x="1536" y="5984" type="line"/>
      <point x="976" y="5984" type="line"/>
      <point x="976" y="6000" type="line"/>
      <point x="2656" y="6000" type="line"/>
      <point x="1264" y="0" type="line"/>
      <point x="144" y="0" type="line"/>
    </contour>
  </outline>
</glyph>
<glyph name="i" format="2">
  <advance width="1500"/>
  <unicode hex="0069"/>
  <outline>
    <contour>
      <point x="608" y="2765" type="curve" smooth="yes"/>
      <point x="608" y="2962"/>
      <point x="759" y="3112"/>
      <point x="956" y="3112" type="curve" smooth="yes"/>
      <point x="1153" y="3112"/>
      <point x="1304" y="2962"/>
      <point x="1304" y="2765" type="curve" smooth="yes"/>
      <point x="1304" y="2568"/>
      <point x="1153" y="2417"/>
      <point x="956" y="2417" type="curve" smooth="yes"/>
      <point x="759" y="2417"/>
      <point x="608" y="2568"/>
    </contour>
    <contour>
      <point x="1419" y="668" type="line"/>
      <point x="1263" y="258"/>
      <point x="982" y="-40"/>
      <point x="588" y="-40" type="curve" smooth="yes"/>
      <point x="334" y="-40"/>
      <point x="204" y="53"/>
      <point x="204" y="299" type="curve" smooth="yes"/>
      <point x="204" y="319"/>
      <point x="206" y="365"/>
      <point x="212" y="389" type="curve" smooth="yes"/>
      <point x="570" y="1876" type="line"/>
      <point x="256" y="1876" type="line"/>
      <point x="256" y="1884" type="line"/>
      <point x="1145" y="1884" type="line"/>
      <point x="733" y="188" type="line" smooth="yes"/>
      <point x="729" y="164"/>
      <point x="725" y="135"/>
      <point x="725" y="115" type="curve" smooth="yes"/>
      <point x="725" y="69"/>
      <point x="745" y="26"/>
      <point x="799" y="26" type="curve" smooth="yes"/>
      <point x="1014" y="26"/>
      <point x="1271" y="286"/>
      <point x="1415" y="672" type="curve"/>
    </contour>
  </outline>
</glyph>
<glyph name="j" format="2">
  <advance width="2392"/>
  <unicode hex="006A"/>
  <outline>
    <contour>
      <point x="1232" y="5400" type="curve" smooth="yes"/>
      <point x="1232" y="5784"/>
      <point x="1536" y="6080"/>
      <point x="1920" y="6080" type="curve" smooth="yes"/>
      <point x="2304" y="6080"/>
      <point x="2592" y="5784"/>
      <point x="2592" y="5400" type="curve" smooth="yes"/>
      <point x="2592" y="5016"/>
      <point x="2304" y="4720"/>
      <point x="1920" y="4720" type="curve" smooth="yes"/>
      <point x="1536" y="4720"/>
      <point x="1232" y="5016"/>
    </contour>
    <contour>
      <point x="-1568" y="-1352" type="curve"/>
      <point x="-1472" y="-1704"/>
      <point x="-1072" y="-2056"/>
      <point x="-576" y="-2056" type="curve" smooth="yes"/>
      <point x="184" y="-2056"/>
      <point x="136" y="-800"/>
      <point x="360" y="160" type="curve" smooth="yes"/>
      <point x="1176" y="3664" type="line"/>
      <point x="424" y="3664" type="line"/>
      <point x="424" y="3680" type="line"/>
      <point x="2288" y="3680" type="line"/>
      <point x="1504" y="-96" type="line" smooth="yes"/>
      <point x="1296" y="-1096"/>
      <point x="504" y="-2080"/>
      <point x="-536" y="-2080" type="curve" smooth="yes"/>
      <point x="-1184" y="-2080"/>
      <point x="-1640" y="-1584"/>
      <point x="-1640" y="-1168" type="curve" smooth="yes"/>
      <point x="-1640" y="-760"/>
      <point x="-1304" y="-472"/>
      <point x="-944" y="-472" type="curve" smooth="yes"/>
      <point x="-624" y="-472"/>
      <point x="-336" y="-704"/>
      <point x="-336" y="-1040" type="curve" smooth="yes"/>
      <point x="-336" y="-1416"/>
      <point x="-656" y="-1680"/>
      <point x="-1024" y="-1680" type="curve" smooth="yes"/>
      <point x="-1312" y="-1680"/>
      <point x="-1472" y="-1512"/>
    </contour>
  </outline>
</glyph>
<glyph name="k" format="2">
  <advance width="4912"/>
  <unicode hex="006B"/>
  <outline>
    <contour>
      <point x="4736" y="1304" type="line"/>
      <point x="4432" y="504"/>
      <point x="3920" y="-80"/>
      <point x="3192" y="-80" type="curve" smooth="yes"/>
      <point x="2696" y="-80"/>
      <point x="2384" y="104"/>
      <point x="2384" y="584" type="curve" smooth="yes"/>
      <point x="2384" y="624"/>
      <point x="2392" y="712"/>
      <point x="2400" y="760" type="curve" smooth="yes"/>
      <point x="2480" y="1120" type="line" smooth="yes"/>
      <point x="2576" y="1584"/>
      <point x="2872" y="2256"/>
      <point x="2440" y="2256" type="curve" smooth="yes"/>
      <point x="2032" y="2256"/>
      <point x="1896" y="1832"/>
      <point x="1832" y="1520" type="curve"/>
      <point x="1816" y="1520" type="line"/>
      <point x="1968" y="2200"/>
      <point x="2240" y="2336"/>
      <point x="2688" y="2336" type="curve" smooth="yes"/>
      <point x="3240" y="2336"/>
      <point x="3776" y="2008"/>
      <point x="3536" y="968" type="curve" smooth="yes"/>
      <point x="3376" y="240" type="line" smooth="yes"/>
      <point x="3376" y="224"/>
      <point x="3376" y="184"/>
      <point x="3376" y="168" type="curve" smooth="yes"/>
      <point x="3376" y="80"/>
      <point x="3432" y="40"/>
      <point x="3536" y="40" type="curve" smooth="yes"/>
      <point x="3984" y="40"/>
      <point x="4472" y="608"/>
      <point x="4728" y="1312" type="curve"/>
    </contour>
    <contour>
      <point x="1784" y="2576" type="curve"/>
      <point x="1800" y="2552" type="line"/>
      <point x="1808" y="2152"/>
      <point x="1960" y="1952"/>
      <point x="2192" y="1952" type="curve" smooth="yes"/>
      <point x="2512" y="1952"/>
      <point x="2688" y="2376"/>
      <point x="2896" y="2888" type="curve" smooth="yes"/>
      <point x="3120" y="3432"/>
      <point x="3456" y="3760"/>
      <point x="3896" y="3760" type="curve" smooth="yes"/>
      <point x="4336" y="3760"/>
      <point x="4720" y="3448"/>
      <point x="4720" y="2952" type="curve" smooth="yes"/>
      <point x="4720" y="2552"/>
      <point x="4448" y="2312"/>
      <point x="4128" y="2312" type="curve" smooth="yes"/>
      <point x="3808" y="2312"/>
      <point x="3568" y="2568"/>
      <point x="3568" y="2872" type="curve" smooth="yes"/>
      <point x="3568" y="3176"/>
      <point x="3824" y="3408"/>
      <point x="4128" y="3408" type="curve" smooth="yes"/>
      <point x="4416" y="3408"/>
      <point x="4632" y="3232"/>
      <point x="4696" y="3024" type="curve"/>
      <point x="4656" y="3448"/>
      <point x="4328" y="3744"/>
      <point x="3896" y="3744" type="curve" smooth="yes"/>
      <point x="3480" y="3744"/>
      <point x="3144" y="3440"/>
      <point x="2912" y="2872" type="curve" smooth="yes"/>
      <point x="2688" y="2328"/>
      <point x="2512" y="1936"/>
      <point x="2192" y="1936" type="curve" smooth="yes"/>
      <point x="1944" y="1936"/>
      <point x="1784" y="2160"/>
    </contour>
    <contour>
      <point x="1744" y="5984" type="line"/>
      <point x="1032" y="5984" type="line"/>
      <point x="1032" y="6000" type="line"/>
      <point x="2872" y="6000" type="line"/>
      <point x="1480" y="0" type="line"/>
      <point x="360" y="0" type="line"/>
    </contour>
  </outline>
</glyph>
<glyph name="l" format="2">
  <advance width="2848"/>
  <unicode hex="006C"/>
  <outline>
    <contour>
      <point x="2688" y="1304" type="line"/>
      <point x="2384" y="504"/>
      <point x="1840" y="-80"/>
      <point x="1072" y="-80" type="curve" smooth="yes"/>
      <point x="576" y="-80"/>
      <point x="320" y="104"/>
      <point x="320" y="584" type="curve" smooth="yes"/>
      <point x="320" y="624"/>
      <point x="328" y="712"/>
      <point x="336" y="760" type="curve" smooth="yes"/>
      <point x="1536" y="5984" type="line"/>
      <point x="784" y="5984" type="line"/>
      <point x="784" y="6000" type="line"/>
      <point x="2656" y="6000" type="line"/>
      <point x="1352" y="368" type="line" smooth="yes"/>
      <point x="1344" y="320"/>
      <point x="1336" y="264"/>
      <point x="1336" y="224" type="curve" smooth="yes"/>
      <point x="1336" y="136"/>
      <point x="1376" y="48"/>
      <point x="1480" y="48" type="curve" smooth="yes"/>
      <point x="1896" y="48"/>
      <point x="2416" y="584"/>
      <point x="2688" y="1312" type="curve"/>
    </contour>
  </outline>
</glyph>
<glyph name="m" format="2">
  <advance width="900"/>
  <unicode hex="006D"/>
  <outline>
    <contour>
      <point x="657" y="306" type="line" smooth="yes"/>
      <point x="683" y="382"/>
      <point x="691" y="452"/>
      <point x="655" y="452" type="curve" smooth="yes"/>
      <point x="585" y="452"/>
      <point x="521" y="339"/>
      <point x="482" y="173" type="curve"/>
      <point x="480" y="173" type="line"/>
      <point x="518" y="325"/>
      <point x="575" y="470"/>
      <point x="691" y="470" type="curve" smooth="yes"/>
      <point x="793" y="470"/>
      <point x="832" y="402"/>
      <point x="801" y="308" type="curve" smooth="yes"/>
      <point x="712" y="39" type="line" smooth="yes"/>
      <point x="710" y="33"/>
      <point x="708" y="26"/>
      <point x="708" y="21" type="curve" smooth="yes"/>
      <point x="708" y="10"/>
      <point x="715" y="2"/>
      <point x="728" y="2" type="curve" smooth="yes"/>
      <point x="785" y="2"/>
      <point x="844" y="68"/>
      <point x="879" y="164" type="curve"/>
      <point x="880" y="163" type="line"/>
      <point x="842" y="63"/>
      <point x="783" y="-10"/>
      <point x="687" y="-10" type="curve" smooth="yes"/>
      <point x="620" y="-10"/>
      <point x="584" y="18"/>
      <point x="584" y="71" type="curve" smooth="yes"/>
      <point x="584" y="86"/>
      <point x="587" y="98"/>
      <point x="589" y="107" type="curve" smooth="yes"/>
    </contour>
    <contour>
      <point x="440" y="0" type="line"/>
      <point x="300" y="0" type="line"/>
      <point x="375" y="308" type="line" smooth="yes"/>
      <point x="394" y="387"/>
      <point x="410" y="452"/>
      <point x="374" y="452" type="curve" smooth="yes"/>
      <point x="300" y="452"/>
      <point x="237" y="329"/>
      <point x="201" y="173" type="curve"/>
      <point x="199" y="173" type="line"/>
      <point x="235" y="324"/>
      <point x="292" y="470"/>
      <point x="410" y="470" type="curve" smooth="yes"/>
      <point x="512" y="470"/>
      <point x="540" y="409"/>
      <point x="518" y="319" type="curve" smooth="yes"/>
    </contour>
    <contour>
      <point x="129" y="458" type="line"/>
      <point x="60" y="458" type="line"/>
      <point x="60" y="460" type="line"/>
      <point x="270" y="460" type="line"/>
      <point x="160" y="0" type="line"/>
      <point x="20" y="0" type="line"/>
    </contour>
  </outline>
</glyph>
<glyph name="n" format="2">
  <advance width="625"/>
  <unicode hex="006E"/>
  <outline>
    <contour>
      <point x="127" y="458" type="line"/>
      <point x="58" y="458" type="line"/>
      <point x="58" y="460" type="line"/>
      <point x="268" y="460" type="line"/>
      <point x="158" y="0" type="line"/>
      <point x="18" y="0" type="line"/>
    </contour>
    <contour>
      <point x="377" y="306" type="line" smooth="yes"/>
      <point x="403" y="382"/>
      <point x="412" y="457"/>
      <point x="376" y="457" type="curve" smooth="yes"/>
      <point x="298" y="457"/>
      <point x="234" y="326"/>
      <point x="198" y="173" type="curve"/>
      <point x="196" y="173" type="line"/>
      <point x="236" y="329"/>
      <point x="290" y="470"/>
      <point x="408" y="470" type="curve" smooth="yes"/>
      <point x="510" y="470"/>
      <point x="552" y="402"/>
      <point x="521" y="308" type="curve" smooth="yes"/>
      <point x="431" y="39" type="line" smooth="yes"/>
      <point x="429" y="33"/>
      <point x="428" y="26"/>
      <point x="428" y="21" type="curve" smooth="yes"/>
      <point x="428" y="10"/>
      <point x="434" y="3"/>
      <point x="447" y="3" type="curve" smooth="yes"/>
      <point x="503" y="3"/>
      <point x="566" y="68"/>
      <point x="601" y="164" type="curve"/>
      <point x="602" y="163" type="line"/>
      <point x="564" y="63"/>
      <point x="503" y="-10"/>
      <point x="407" y="-10" type="curve" smooth="yes"/>
      <point x="340" y="-10"/>
      <point x="304" y="18"/>
      <point x="304" y="71" type="curve" smooth="yes"/>
      <point x="304" y="86"/>
      <point x="307" y="98"/>
      <point x="309" y="107" type="curve" smooth="yes"/>
    </contour>
  </outline>
</glyph>
<glyph name="p" format="2">
  <advance width="4800"/>
  <unicode hex="0070"/>
  <outline>
    <contour>
      <point x="1688" y="1168" type="curve" smooth="yes"/>
      <point x="1688" y="664"/>
      <point x="1816" y="168"/>
      <point x="2144" y="168" type="curve" smooth="yes"/>
      <point x="2696" y="168"/>
      <point x="3368" y="1600"/>
      <point x="3368" y="2672" type="curve" smooth="yes"/>
      <point x="3368" y="3184"/>
      <point x="3200" y="3520"/>
      <point x="2912" y="3520" type="curve" smooth="yes"/>
      <point x="2208" y="3520"/>
      <point x="1688" y="2040"/>
    </contour>
    <contour>
      <point x="1672" y="1168" type="curve" smooth="yes"/>
      <point x="1672" y="2032"/>
      <point x="2184" y="3760"/>
      <point x="3312" y="3760" type="curve" smooth="yes"/>
      <point x="3864" y="3760"/>
      <point x="4600" y="3440"/>
      <point x="4600" y="2400" type="curve" smooth="yes"/>
      <point x="4600" y="800"/>
      <point x="3328" y="-80"/>
      <point x="2496" y="-80" type="curve" smooth="yes"/>
      <point x="1888" y="-80"/>
      <point x="1672" y="432"/>
    </contour>
    <contour>
      <point x="-760" y="-1984" type="line"/>
      <point x="1440" y="-1984" type="line"/>
      <point x="1440" y="-2000" type="line"/>
      <point x="-760" y="-2000" type="line"/>
    </contour>
    <contour>
      <point x="1064" y="3664" type="line"/>
      <point x="496" y="3664" type="line"/>
      <point x="496" y="3680" type="line"/>
      <point x="2192" y="3680" type="line"/>
      <point x="1856" y="2224" type="line"/>
      <point x="1760" y="1840" type="line"/>
      <point x="1712" y="1544" type="line"/>
      <point x="880" y="-2000" type="line"/>
      <point x="-240" y="-2000" type="line"/>
    </contour>
  </outline>
</glyph>
<glyph name="q" format="2">
  <advance width="4680"/>
  <unicode hex="0071"/>
  <outline>
    <contour>
      <point x="3632" y="-1984" type="line"/>
      <point x="3632" y="-2000" type="line"/>
      <point x="1512" y="-2000" type="line"/>
      <point x="1512" y="-1984" type="line"/>
    </contour>
    <contour>
      <point x="3072" y="-2000" type="line"/>
      <point x="2032" y="-2000" type="line"/>
      <point x="2816" y="1336" type="line"/>
      <point x="2856" y="1440"/>
      <point x="2944" y="1872"/>
      <point x="2976" y="2008" type="curve"/>
      <point x="3024" y="2328" type="line"/>
      <point x="3328" y="3600" type="line"/>
      <point x="4400" y="3760" type="line"/>
    </contour>
    <contour>
      <point x="3024" y="2512" type="curve" smooth="yes"/>
      <point x="3024" y="3016"/>
      <point x="2888" y="3504"/>
      <point x="2560" y="3504" type="curve" smooth="yes"/>
      <point x="2008" y="3504"/>
      <point x="1352" y="2072"/>
      <point x="1352" y="1000" type="curve" smooth="yes"/>
      <point x="1352" y="488"/>
      <point x="1504" y="152"/>
      <point x="1792" y="152" type="curve" smooth="yes"/>
      <point x="2496" y="152"/>
      <point x="3024" y="1640"/>
    </contour>
    <contour>
      <point x="3040" y="2512" type="curve" smooth="yes"/>
      <point x="3040" y="1648"/>
      <point x="2520" y="-80"/>
      <point x="1392" y="-80" type="curve" smooth="yes"/>
      <point x="840" y="-80"/>
      <point x="120" y="240"/>
      <point x="120" y="1280" type="curve" smooth="yes"/>
      <point x="120" y="2880"/>
      <point x="1376" y="3760"/>
      <point x="2208" y="3760" type="curve" smooth="yes"/>
      <point x="2816" y="3760"/>
      <point x="3040" y="3248"/>
    </contour>
  </outline>
</glyph>
<glyph name="r" format="2">
  <advance width="3808"/>
  <unicode hex="0072"/>
  <outline>
    <contour>
      <point x="4008" y="2912" type="curve" smooth="yes"/>
      <point x="4008" y="2544"/>
      <point x="3768" y="2224"/>
      <point x="3344" y="2224" type="curve" smooth="yes"/>
      <point x="2960" y="2224"/>
      <point x="2672" y="2464"/>
      <point x="2672" y="2864" type="curve" smooth="yes"/>
      <point x="2672" y="3224"/>
      <point x="2952" y="3520"/>
      <point x="3344" y="3520" type="curve" smooth="yes"/>
      <point x="3656" y="3520"/>
      <point x="3880" y="3336"/>
      <point x="3968" y="3120" type="curve"/>
      <point x="3864" y="3520"/>
      <point x="3480" y="3744"/>
      <point x="3112" y="3744" type="curve" smooth="yes"/>
      <point x="2184" y="3744"/>
      <point x="1824" y="2168"/>
      <point x="1632" y="1384" type="curve"/>
      <point x="1616" y="1384" type="line"/>
      <point x="1816" y="2232"/>
      <point x="2176" y="3760"/>
      <point x="3112" y="3760" type="curve" smooth="yes"/>
      <point x="3560" y="3760"/>
      <point x="4008" y="3424"/>
    </contour>
    <contour>
      <point x="1072" y="3664" type="line"/>
      <point x="480" y="3664" type="line"/>
      <point x="480" y="3680" type="line"/>
      <point x="2160" y="3680" type="line"/>
      <point x="1320" y="0" type="line"/>
      <point x="200" y="0" type="line"/>
    </contour>
  </outline>
</glyph>
<glyph name="s" format="2">
  <advance width="3616"/>
  <unicode hex="0073"/>
  <outline>
    <contour>
      <point x="3216" y="3072" type="curve"/>
      <point x="3136" y="3432"/>
      <point x="2680" y="3736"/>
      <point x="1992" y="3736" type="curve" smooth="yes"/>
      <point x="1528" y="3736"/>
      <point x="1256" y="3464"/>
      <point x="1256" y="3176" type="curve" smooth="yes"/>
      <point x="1256" y="2376"/>
      <point x="3056" y="2280"/>
      <point x="3056" y="1216" type="curve" smooth="yes"/>
      <point x="3056" y="464"/>
      <point x="2296" y="-96"/>
      <point x="1400" y="-96" type="curve" smooth="yes"/>
      <point x="368" y="-96"/>
      <point x="-40" y="440"/>
      <point x="-40" y="880" type="curve" smooth="yes"/>
      <point x="-40" y="1248"/>
      <point x="248" y="1456"/>
      <point x="528" y="1456" type="curve" smooth="yes"/>
      <point x="768" y="1456"/>
      <point x="1072" y="1288"/>
      <point x="1072" y="928" type="curve" smooth="yes"/>
      <point x="1072" y="608"/>
      <point x="808" y="408"/>
      <point x="536" y="408" type="curve" smooth="yes"/>
      <point x="256" y="408"/>
      <point x="32" y="592"/>
      <point x="0" y="760" type="curve"/>
      <point x="72" y="344"/>
      <point x="504" y="-80"/>
      <point x="1400" y="-80" type="curve" smooth="yes"/>
      <point x="1960" y="-80"/>
      <point x="2312" y="216"/>
      <point x="2312" y="584" type="curve" smooth="yes"/>
      <point x="2312" y="1320"/>
      <point x="488" y="1368"/>
      <point x="488" y="2536" type="curve" smooth="yes"/>
      <point x="488" y="3328"/>
      <point x="1288" y="3752"/>
      <point x="1992" y="3752" type="curve" smooth="yes"/>
      <point x="2776" y="3752"/>
      <point x="3256" y="3360"/>
      <point x="3256" y="2944" type="curve" smooth="yes"/>
      <point x="3256" y="2616"/>
      <point x="3032" y="2424"/>
      <point x="2752" y="2424" type="curve" smooth="yes"/>
      <point x="2512" y="2424"/>
      <point x="2240" y="2592"/>
      <point x="2240" y="2912" type="curve" smooth="yes"/>
      <point x="2240" y="3192"/>
      <point x="2472" y="3392"/>
      <point x="2736" y="3392" type="curve" smooth="yes"/>
      <point x="2976" y="3392"/>
      <point x="3136" y="3280"/>
    </contour>
  </outline>
</glyph>
<glyph name="t" format="2">
  <advance width="2920"/>
  <unicode hex="0074"/>
  <outline>
    <contour>
      <point x="368" y="3680" type="line"/>
      <point x="2928" y="3680" type="line"/>
      <point x="2928" y="3664" type="line"/>
      <point x="368" y="3664" type="line"/>
    </contour>
    <contour>
      <point x="2752" y="1304" type="line"/>
      <point x="2448" y="504"/>
      <point x="1888" y="-80"/>
      <point x="1120" y="-80" type="curve" smooth="yes"/>
      <point x="624" y="-80"/>
      <point x="368" y="104"/>
      <point x="368" y="584" type="curve" smooth="yes"/>
      <point x="368" y="624"/>
      <point x="368" y="712"/>
      <point x="384" y="760" type="curve" smooth="yes"/>
      <point x="1232" y="4480" type="line"/>
      <point x="2352" y="4480" type="line"/>
      <point x="1408" y="368" type="line" smooth="yes"/>
      <point x="1400" y="320"/>
      <point x="1392" y="264"/>
      <point x="1392" y="224" type="curve" smooth="yes"/>
      <point x="1392" y="136"/>
      <point x="1432" y="72"/>
      <point x="1536" y="72" type="curve" smooth="yes"/>
      <point x="2032" y="72"/>
      <point x="2488" y="664"/>
      <point x="2736" y="1312" type="curve"/>
    </contour>
  </outline>
</glyph>
<glyph name="u" format="2">
  <advance width="5240"/>
  <unicode hex="0075"/>
  <outline>
    <contour>
      <point x="2192" y="3680" type="line"/>
      <point x="1592" y="1136" type="line" smooth="yes"/>
      <point x="1448" y="504"/>
      <point x="1416" y="96"/>
      <point x="1728" y="96" type="curve" smooth="yes"/>
      <point x="2240" y="96"/>
      <point x="2760" y="1032"/>
      <point x="3072" y="2296" type="curve"/>
      <point x="3088" y="2296" type="line"/>
      <point x="2752" y="1008"/>
      <point x="2304" y="-80"/>
      <point x="1376" y="-80" type="curve" smooth="yes"/>
      <point x="600" y="-80"/>
      <point x="336" y="472"/>
      <point x="480" y="1128" type="curve" smooth="yes"/>
      <point x="1056" y="3664" type="line"/>
      <point x="496" y="3664" type="line"/>
      <point x="496" y="3680" type="line"/>
    </contour>
    <contour>
      <point x="5088" y="1304" type="line"/>
      <point x="4784" y="504"/>
      <point x="4224" y="-80"/>
      <point x="3456" y="-80" type="curve" smooth="yes"/>
      <point x="2960" y="-80"/>
      <point x="2704" y="104"/>
      <point x="2704" y="584" type="curve" smooth="yes"/>
      <point x="2704" y="624"/>
      <point x="2712" y="712"/>
      <point x="2720" y="760" type="curve" smooth="yes"/>
      <point x="3376" y="3680" type="line"/>
      <point x="4512" y="3680" type="line"/>
      <point x="3736" y="368" type="line" smooth="yes"/>
      <point x="3728" y="320"/>
      <point x="3720" y="264"/>
      <point x="3720" y="224" type="curve" smooth="yes"/>
      <point x="3720" y="136"/>
      <point x="3760" y="72"/>
      <point x="3864" y="72" type="curve" smooth="yes"/>
      <point x="4352" y="72"/>
      <point x="4832" y="656"/>
      <point x="5072" y="1312" type="curve"/>
    </contour>
  </outline>
</glyph>
<glyph name="v" format="2">
  <advance width="4808"/>
  <unicode hex="0076"/>
  <outline>
    <contour>
      <point x="2144" y="1056" type="line" smooth="yes"/>
      <point x="2040" y="424"/>
      <point x="1952" y="8"/>
      <point x="2400" y="8" type="curve" smooth="yes"/>
      <point x="3264" y="8"/>
      <point x="4672" y="1424"/>
      <point x="4672" y="2752" type="curve" smooth="yes"/>
      <point x="4672" y="2944"/>
      <point x="4640" y="3064"/>
      <point x="4608" y="3128" type="curve"/>
      <point x="4600" y="2856"/>
      <point x="4312" y="2440"/>
      <point x="3864" y="2440" type="curve" smooth="yes"/>
      <point x="3400" y="2440"/>
      <point x="3176" y="2776"/>
      <point x="3176" y="3096" type="curve" smooth="yes"/>
      <point x="3176" y="3456"/>
      <point x="3472" y="3752"/>
      <point x="3888" y="3752" type="curve" smooth="yes"/>
      <point x="4432" y="3752"/>
      <point x="4688" y="3280"/>
      <point x="4688" y="2752" type="curve" smooth="yes"/>
      <point x="4688" y="1416"/>
      <point x="3280" y="-80"/>
      <point x="2136" y="-80" type="curve" smooth="yes"/>
      <point x="1240" y="-80"/>
      <point x="904" y="432"/>
      <point x="1040" y="1168" type="curve" smooth="yes"/>
      <point x="1424" y="3312" type="line" smooth="yes"/>
      <point x="1432" y="3360"/>
      <point x="1440" y="3416"/>
      <point x="1440" y="3456" type="curve" smooth="yes"/>
      <point x="1440" y="3544"/>
      <point x="1392" y="3608"/>
      <point x="1272" y="3608" type="curve" smooth="yes"/>
      <point x="744" y="3608"/>
      <point x="352" y="2976"/>
      <point x="96" y="2368" type="curve"/>
      <point x="80" y="2376" type="line"/>
      <point x="424" y="3176"/>
      <point x="856" y="3760"/>
      <point x="1704" y="3760" type="curve" smooth="yes"/>
      <point x="2240" y="3760"/>
      <point x="2464" y="3536"/>
      <point x="2464" y="3152" type="curve" smooth="yes"/>
      <point x="2464" y="3032"/>
      <point x="2448" y="2960"/>
      <point x="2432" y="2864" type="curve" smooth="yes"/>
    </contour>
  </outline>
</glyph>
<glyph name="w" format="2">
  <advance width="7192"/>
  <unicode hex="0077"/>
  <outline>
    <contour>
      <point x="1840" y="1168" type="line" smooth="yes"/>
      <point x="1632" y="552"/>
      <point x="1632" y="40"/>
      <point x="2000" y="40" type="curve" smooth="yes"/>
      <point x="2688" y="40"/>
      <point x="3224" y="1096"/>
      <point x="3512" y="2296" type="curve"/>
      <point x="3528" y="2296" type="line"/>
      <point x="3224" y="1160"/>
      <point x="2784" y="-80"/>
      <point x="1696" y="-80" type="curve" smooth="yes"/>
      <point x="840" y="-80"/>
      <point x="480" y="416"/>
      <point x="720" y="1128" type="curve" smooth="yes"/>
      <point x="1448" y="3312" type="line" smooth="yes"/>
      <point x="1464" y="3360"/>
      <point x="1472" y="3416"/>
      <point x="1472" y="3456" type="curve" smooth="yes"/>
      <point x="1472" y="3544"/>
      <point x="1408" y="3608"/>
      <point x="1296" y="3608" type="curve" smooth="yes"/>
      <point x="776" y="3608"/>
      <point x="400" y="3064"/>
      <point x="96" y="2368" type="curve"/>
      <point x="80" y="2376" type="line"/>
      <point x="424" y="3176"/>
      <point x="856" y="3760"/>
      <point x="1704" y="3760" type="curve" smooth="yes"/>
      <point x="2200" y="3760"/>
      <point x="2464" y="3560"/>
      <point x="2464" y="3136" type="curve" smooth="yes"/>
      <point x="2464" y="3016"/>
      <point x="2448" y="2920"/>
      <point x="2432" y="2864" type="curve" smooth="yes"/>
    </contour>
    <contour>
      <point x="3840" y="3680" type="line"/>
      <point x="4960" y="3680" type="line"/>
      <point x="4432" y="1432" type="line" smooth="yes"/>
      <point x="4272" y="760"/>
      <point x="4296" y="0"/>
      <point x="4928" y="0" type="curve" smooth="yes"/>
      <point x="6176" y="0"/>
      <point x="7056" y="1792"/>
      <point x="7056" y="2752" type="curve" smooth="yes"/>
      <point x="7056" y="2896"/>
      <point x="7024" y="3024"/>
      <point x="7008" y="3072" type="curve"/>
      <point x="6976" y="2704"/>
      <point x="6680" y="2440"/>
      <point x="6232" y="2440" type="curve" smooth="yes"/>
      <point x="5792" y="2440"/>
      <point x="5552" y="2776"/>
      <point x="5552" y="3096" type="curve" smooth="yes"/>
      <point x="5552" y="3456"/>
      <point x="5856" y="3752"/>
      <point x="6256" y="3752" type="curve" smooth="yes"/>
      <point x="6720" y="3752"/>
      <point x="7072" y="3360"/>
      <point x="7072" y="2752" type="curve" smooth="yes"/>
      <point x="7072" y="1872"/>
      <point x="6272" y="-80"/>
      <point x="4712" y="-80" type="curve" smooth="yes"/>
      <point x="3960" y="-80"/>
      <point x="2992" y="272"/>
      <point x="3360" y="1712" type="curve"/>
    </contour>
  </outline>
</glyph>
<glyph name="x" format="2">
  <advance width="611"/>
  <unicode hex="0078"/>
  <outline>
    <contour>
      <point x="324" y="242" type="line"/>
      <point x="384" y="340"/>
      <point x="432" y="470"/>
      <point x="526" y="470" type="curve" smooth="yes"/>
      <point x="597" y="470"/>
      <point x="626" y="416"/>
      <point x="626" y="374" type="curve" smooth="yes"/>
      <point x="626" y="328"/>
      <point x="596" y="294"/>
      <point x="548" y="294" type="curve" smooth="yes"/>
      <point x="498" y="294"/>
      <point x="474" y="336"/>
      <point x="474" y="371" type="curve" smooth="yes"/>
      <point x="474" y="408"/>
      <point x="505" y="446"/>
      <point x="551" y="446" type="curve" smooth="yes"/>
      <point x="583" y="446"/>
      <point x="610" y="424"/>
      <point x="622" y="396" type="curve"/>
      <point x="612" y="436"/>
      <point x="578" y="468"/>
      <point x="526" y="468" type="curve" smooth="yes"/>
      <point x="434" y="468"/>
      <point x="388" y="342"/>
      <point x="326" y="240" type="curve"/>
    </contour>
    <contour>
      <point x="301" y="248" type="line"/>
      <point x="230" y="130"/>
      <point x="175" y="-10"/>
      <point x="81" y="-10" type="curve" smooth="yes"/>
      <point x="10" y="-10"/>
      <point x="-20" y="44"/>
      <point x="-20" y="86" type="curve" smooth="yes"/>
      <point x="-20" y="132"/>
      <point x="10" y="166"/>
      <point x="58" y="166" type="curve" smooth="yes"/>
      <point x="108" y="166"/>
      <point x="133" y="124"/>
      <point x="133" y="89" type="curve" smooth="yes"/>
      <point x="133" y="52"/>
      <point x="102" y="14"/>
      <point x="54" y="14" type="curve" smooth="yes"/>
      <point x="16" y="14"/>
      <point x="-9" y="43"/>
      <point x="-17" y="72" type="curve"/>
      <point x="-8" y="22"/>
      <point x="29" y="-8"/>
      <point x="81" y="-8" type="curve" smooth="yes"/>
      <point x="173" y="-8"/>
      <point x="230" y="135"/>
      <point x="300" y="250" type="curve"/>
    </contour>
    <contour>
      <point x="566" y="109" type="line"/>
      <point x="534" y="24"/>
      <point x="482" y="-10"/>
      <point x="410" y="-10" type="curve" smooth="yes"/>
      <point x="333" y="-10"/>
      <point x="302" y="25"/>
      <point x="282" y="83" type="curve" smooth="yes"/>
      <point x="254" y="167"/>
      <point x="205" y="354"/>
      <point x="179" y="426" type="curve" smooth="yes"/>
      <point x="175" y="437"/>
      <point x="168" y="450"/>
      <point x="148" y="450" type="curve" smooth="yes"/>
      <point x="117" y="450"/>
      <point x="84" y="412"/>
      <point x="59" y="348" type="curve"/>
      <point x="58" y="349" type="line"/>
      <point x="90" y="434"/>
      <point x="134" y="472"/>
      <point x="216" y="472" type="curve" smooth="yes"/>
      <point x="293" y="472"/>
      <point x="320" y="437"/>
      <point x="340" y="379" type="curve" smooth="yes"/>
      <point x="370" y="291"/>
      <point x="410" y="133"/>
      <point x="445" y="36" type="curve" smooth="yes"/>
      <point x="449" y="25"/>
      <point x="460" y="12"/>
      <point x="476" y="12" type="curve" smooth="yes"/>
      <point x="504" y="12"/>
      <point x="540" y="48"/>
      <point x="564" y="110" type="curve"/>
    </contour>
  </outline>
</glyph>
<glyph name="y" format="2">
  <advance width="5048"/>
  <unicode hex="0079"/>
  <outline>
    <contour>
      <point x="2760" y="-816" type="curve"/>
      <point x="2088" y="336"/>
      <point x="1464" y="2816"/>
      <point x="1248" y="3392" type="curve" smooth="yes"/>
      <point x="1216" y="3480"/>
      <point x="1152" y="3592"/>
      <point x="1008" y="3592" type="curve" smooth="yes"/>
      <point x="768" y="3592"/>
      <point x="432" y="3248"/>
      <point x="272" y="2768" type="curve"/>
      <point x="264" y="2776" type="line"/>
      <point x="528" y="3496"/>
      <point x="992" y="3760"/>
      <point x="1568" y="3760" type="curve" smooth="yes"/>
      <point x="2112" y="3760"/>
      <point x="2384" y="3472"/>
      <point x="2528" y="3008" type="curve" smooth="yes"/>
      <point x="2752" y="2288"/>
      <point x="3040" y="952"/>
      <point x="3584" y="160" type="curve"/>
      <point x="3408" y="-80"/>
      <point x="2952" y="-624"/>
    </contour>
    <contour>
      <point x="880" y="-2080" type="curve" smooth="yes"/>
      <point x="184" y="-2080"/>
      <point x="-160" y="-1568"/>
      <point x="-160" y="-1088" type="curve" smooth="yes"/>
      <point x="-160" y="-704"/>
      <point x="112" y="-360"/>
      <point x="496" y="-360" type="curve" smooth="yes"/>
      <point x="816" y="-360"/>
      <point x="1104" y="-568"/>
      <point x="1104" y="-952" type="curve" smooth="yes"/>
      <point x="1104" y="-1296"/>
      <point x="840" y="-1544"/>
      <point x="504" y="-1544" type="curve" smooth="yes"/>
      <point x="168" y="-1544"/>
      <point x="-80" y="-1360"/>
      <point x="-144" y="-1128" type="curve"/>
      <point x="-128" y="-1592"/>
      <point x="216" y="-2064"/>
      <point x="880" y="-2064" type="curve" smooth="yes"/>
      <point x="2384" y="-2064"/>
      <point x="4928" y="1848"/>
      <point x="4928" y="2888" type="curve" smooth="yes"/>
      <point x="4928" y="3032"/>
      <point x="4888" y="3144"/>
      <point x="4840" y="3216" type="curve"/>
      <point x="4856" y="2728"/>
      <point x="4528" y="2528"/>
      <point x="4200" y="2528" type="curve" smooth="yes"/>
      <point x="3760" y="2528"/>
      <point x="3520" y="2864"/>
      <point x="3520" y="3144" type="curve" smooth="yes"/>
      <point x="3520" y="3464"/>
      <point x="3776" y="3760"/>
      <point x="4192" y="3760" type="curve" smooth="yes"/>
      <point x="4720" y="3760"/>
      <point x="4944" y="3296"/>
      <point x="4944" y="2888" type="curve" smooth="yes"/>
      <point x="4944" y="1848"/>
      <point x="2400" y="-2080"/>
    </contour>
  </outline>
</glyph>
<glyph name="z" format="2">
  <advance width="3624"/>
  <unicode hex="007A"/>
  <outline>
    <contour>
      <point x="200" y="1880" type="line"/>
      <point x="632" y="3720" type="line"/>
      <point x="1064" y="3480"/>
      <point x="1544" y="3408"/>
      <point x="2032" y="3408" type="curve" smooth="yes"/>
      <point x="2496" y="3408"/>
      <point x="3208" y="3472"/>
      <point x="3504" y="3712" type="curve"/>
      <point x="3520" y="3696" type="line"/>
      <point x="2848" y="3136"/>
      <point x="2016" y="2400"/>
      <point x="1376" y="2400" type="curve" smooth="yes"/>
      <point x="1024" y="2400"/>
      <point x="624" y="2528"/>
      <point x="416" y="2704" type="curve"/>
      <point x="216" y="1880" type="line"/>
    </contour>
    <contour>
      <point x="-128" y="-16" type="line"/>
      <point x="-224" y="-72" type="line"/>
      <point x="3488" y="3696" type="line"/>
      <point x="3520" y="3696" type="line"/>
    </contour>
    <contour>
      <point x="3536" y="1432" type="curve"/>
      <point x="3456" y="1176"/>
      <point x="3248" y="968"/>
      <point x="2928" y="968" type="curve" smooth="yes"/>
      <point x="2656" y="968"/>
      <point x="2376" y="1208"/>
      <point x="2376" y="1528" type="curve" smooth="yes"/>
      <point x="2376" y="1888"/>
      <point x="2672" y="2096"/>
      <point x="2952" y="2096" type="curve" smooth="yes"/>
      <point x="3272" y="2096"/>
      <point x="3552" y="1864"/>
      <point x="3552" y="1456" type="curve" smooth="yes"/>
      <point x="3552" y="976"/>
      <point x="3032" y="-80"/>
      <point x="2136" y="-80" type="curve" smooth="yes"/>
      <point x="1568" y="-80"/>
      <point x="1304" y="312"/>
      <point x="776" y="312" type="curve" smooth="yes"/>
      <point x="392" y="312"/>
      <point x="48" y="176"/>
      <point x="-208" y="-80" type="curve"/>
      <point x="-216" y="-72" type="line"/>
      <point x="328" y="408"/>
      <point x="1096" y="1080"/>
      <point x="1656" y="1080" type="curve" smooth="yes"/>
      <point x="2208" y="1080"/>
      <point x="2264" y="616"/>
      <point x="2880" y="616" type="curve" smooth="yes"/>
      <point x="3280" y="616"/>
      <point x="3496" y="1000"/>
    </contour>
  </outline>
</glyph>
<glyph name="cent" format="2">
  <advance width="3952"/>
  <unicode hex="00A2"/>
  <outline>
    <contour>
      <point x="2784" y="4440" type="line"/>
      <point x="1424" y="-680" type="line"/>
      <point x="1408" y="-680" type="line"/>
      <point x="2768" y="4440" type="line"/>
    </contour>
    <component base="c"/>
  </outline>
</glyph>
<glyph name="sterling" format="2">
  <advance width="5000"/>
  <unicode hex="00A3"/>
  <outline>
    <contour>
      <point x="5136" y="1736" type="line"/>
      <point x="4976" y="536"/>
      <point x="4248" y="-240"/>
      <point x="3296" y="-240" type="curve" smooth="yes"/>
      <point x="2200" y="-240"/>
      <point x="1608" y="240"/>
      <point x="1104" y="240" type="curve" smooth="yes"/>
      <point x="736" y="240"/>
      <point x="400" y="80"/>
      <point x="280" y="-160" type="curve"/>
      <point x="264" y="-160" type="line"/>
      <point x="544" y="592"/>
      <point x="1352" y="1256"/>
      <point x="2136" y="1256" type="curve" smooth="yes"/>
      <point x="2936" y="1256"/>
      <point x="3096" y="984"/>
      <point x="3824" y="984" type="curve" smooth="yes"/>
      <point x="4448" y="984"/>
      <point x="4960" y="1080"/>
      <point x="5120" y="1736" type="curve"/>
    </contour>
    <contour>
      <point x="4520" y="3240" type="line"/>
      <point x="4520" y="3224" type="line"/>
      <point x="520" y="3224" type="line"/>
      <point x="520" y="3240" type="line"/>
    </contour>
    <contour>
      <point x="1424" y="4120" type="curve" smooth="yes"/>
      <point x="1424" y="5320"/>
      <point x="2664" y="6080"/>
      <point x="4112" y="6080" type="curve" smooth="yes"/>
      <point x="5288" y="6080"/>
      <point x="5792" y="5424"/>
      <point x="5792" y="4688" type="curve" smooth="yes"/>
      <point x="5792" y="4240"/>
      <point x="5464" y="3952"/>
      <point x="5104" y="3952" type="curve" smooth="yes"/>
      <point x="4744" y="3952"/>
      <point x="4408" y="4200"/>
      <point x="4408" y="4640" type="curve" smooth="yes"/>
      <point x="4408" y="5040"/>
      <point x="4752" y="5280"/>
      <point x="5104" y="5280" type="curve" smooth="yes"/>
      <point x="5472" y="5280"/>
      <point x="5728" y="5008"/>
      <point x="5776" y="4760" type="curve"/>
      <point x="5752" y="5480"/>
      <point x="5192" y="6032"/>
      <point x="4320" y="6032" type="curve" smooth="yes"/>
      <point x="3368" y="6032"/>
      <point x="2872" y="5112"/>
      <point x="2872" y="4520" type="curve" smooth="yes"/>
      <point x="2872" y="4008"/>
      <point x="3040" y="3760"/>
      <point x="3040" y="3120" type="curve" smooth="yes"/>
      <point x="3040" y="1520"/>
      <point x="208" y="1320"/>
      <point x="272" y="-160" type="curve"/>
      <point x="256" y="-160" type="line"/>
      <point x="144" y="952"/>
      <point x="1672" y="1536"/>
      <point x="1672" y="2488" type="curve" smooth="yes"/>
      <point x="1672" y="2960"/>
      <point x="1424" y="3440"/>
    </contour>
  </outline>
</glyph>
<glyph name="section" format="2">
  <advance width="474"/>
  <unicode hex="00A7"/>
  <outline>
    <contour>
      <point x="226" y="644" type="curve" smooth="yes"/>
      <point x="226" y="533"/>
      <point x="473" y="558"/>
      <point x="473" y="410" type="curve" smooth="yes"/>
      <point x="473" y="333"/>
      <point x="383" y="293"/>
      <point x="331" y="259" type="curve"/>
      <point x="330" y="259" type="line"/>
      <point x="364" y="281"/>
      <point x="387" y="303"/>
      <point x="387" y="343" type="curve" smooth="yes"/>
      <point x="387" y="449"/>
      <point x="140" y="408"/>
      <point x="140" y="580" type="curve" smooth="yes"/>
      <point x="140" y="684"/>
      <point x="253" y="760"/>
      <point x="358" y="760" type="curve" smooth="yes"/>
      <point x="456" y="760"/>
      <point x="518" y="697"/>
      <point x="518" y="631" type="curve" smooth="yes"/>
      <point x="518" y="570"/>
      <point x="487" y="540"/>
      <point x="442" y="540" type="curve" smooth="yes"/>
      <point x="402" y="540"/>
      <point x="373" y="565"/>
      <point x="373" y="611" type="curve" smooth="yes"/>
      <point x="373" y="648"/>
      <point x="405" y="676"/>
      <point x="445" y="676" type="curve" smooth="yes"/>
      <point x="486" y="676"/>
      <point x="509" y="651"/>
      <point x="516" y="636" type="curve"/>
      <point x="512" y="694"/>
      <point x="460" y="758"/>
      <point x="358" y="758" type="curve" smooth="yes"/>
      <point x="285" y="758"/>
      <point x="226" y="706"/>
    </contour>
    <contour>
      <point x="420" y="177" type="curve" smooth="yes"/>
      <point x="420" y="73"/>
      <point x="305" y="-10"/>
      <point x="180" y="-10" type="curve" smooth="yes"/>
      <point x="92" y="-10"/>
      <point x="-4" y="32"/>
      <point x="-4" y="128" type="curve" smooth="yes"/>
      <point x="-4" y="174"/>
      <point x="30" y="214"/>
      <point x="80" y="214" type="curve" smooth="yes"/>
      <point x="120" y="214"/>
      <point x="150" y="191"/>
      <point x="150" y="150" type="curve" smooth="yes"/>
      <point x="150" y="108"/>
      <point x="117" y="78"/>
      <point x="73" y="78" type="curve" smooth="yes"/>
      <point x="37" y="78"/>
      <point x="7" y="98"/>
      <point x="-2" y="126" type="curve"/>
      <point x="1" y="32"/>
      <point x="93" y="-8"/>
      <point x="180" y="-8" type="curve" smooth="yes"/>
      <point x="283" y="-8"/>
      <point x="331" y="59"/>
      <point x="331" y="106" type="curve" smooth="yes"/>
      <point x="331" y="217"/>
      <point x="69" y="192"/>
      <point x="69" y="335" type="curve" smooth="yes"/>
      <point x="69" y="407"/>
      <point x="153" y="474"/>
      <point x="202" y="495" type="curve"/>
      <point x="204" y="495" type="line"/>
      <point x="185" y="483"/>
      <point x="164" y="464"/>
      <point x="164" y="422" type="curve" smooth="yes"/>
      <point x="164" y="306"/>
      <point x="420" y="339"/>
    </contour>
  </outline>
</glyph>
<glyph name="copyright" format="2">
  <advance width="870"/>
  <unicode hex="00A9"/>
  <outline>
    <contour>
      <point x="85" y="305" type="curve" smooth="yes"/>
      <point x="85" y="538"/>
      <point x="307" y="760"/>
      <point x="540" y="760" type="curve" smooth="yes"/>
      <point x="733" y="760"/>
      <point x="875" y="638"/>
      <point x="875" y="445" type="curve" smooth="yes"/>
      <point x="875" y="212"/>
      <point x="653" y="-10"/>
      <point x="420" y="-10" type="curve" smooth="yes"/>
      <point x="227" y="-10"/>
      <point x="85" y="112"/>
    </contour>
    <contour>
      <point x="87" y="305" type="curve" smooth="yes"/>
      <point x="87" y="113"/>
      <point x="228" y="-8"/>
      <point x="420" y="-8" type="curve" smooth="yes"/>
      <point x="651" y="-8"/>
      <point x="873" y="213"/>
      <point x="873" y="445" type="curve" smooth="yes"/>
      <point x="873" y="637"/>
      <point x="732" y="758"/>
      <point x="540" y="758" type="curve" smooth="yes"/>
      <point x="309" y="758"/>
      <point x="87" y="537"/>
    </contour>
    <component base="C" xScale="0.6" yScale="0.6" xOffset="222" yOffset="150"/>
  </outline>
</glyph>
<glyph name="mu" format="2">
  <advance width="2684"/>
  <unicode hex="00B5"/>
  <outline>
    <contour>
      <point x="40" y="-372" type="line" smooth="yes"/>
      <point x="-50" y="-762"/>
      <point x="26" y="-1052"/>
      <point x="390" y="-1056" type="curve"/>
      <point x="512" y="-1048" type="line"/>
      <point x="402" y="-1036"/>
      <point x="258" y="-970"/>
      <point x="258" y="-782" type="curve" smooth="yes"/>
      <point x="258" y="-630"/>
      <point x="384" y="-516"/>
      <point x="520" y="-516" type="curve" smooth="yes"/>
      <point x="656" y="-516"/>
      <point x="786" y="-622"/>
      <point x="786" y="-778" type="curve" smooth="yes"/>
      <point x="786" y="-938"/>
      <point x="690" y="-1064"/>
      <point x="390" y="-1064" type="curve" smooth="yes"/>
      <point x="22" y="-1064"/>
      <point x="-58" y="-762"/>
      <point x="32" y="-372" type="curve" smooth="yes"/>
      <point x="422" y="1314" type="line"/>
      <point x="430" y="1314" type="line"/>
    </contour>
    <component base="u"/>
  </outline>
</glyph>
<glyph name="cedilla" format="2">
  <advance width="550"/>
  <unicode hex="00B8"/>
  <outline>
    <contour>
      <point x="237" y="-79" type="line"/>
      <point x="357" y="41" type="line"/>
      <point x="359" y="41" type="line"/>
      <point x="239" y="-79" type="line"/>
    </contour>
    <contour>
      <point x="237" y="-79" type="curve"/>
      <point x="278" y="-39" type="line"/>
      <point x="364" y="-39"/>
      <point x="434" y="-55"/>
      <point x="434" y="-110" type="curve" smooth="yes"/>
      <point x="434" y="-180"/>
      <point x="332" y="-220"/>
      <point x="216" y="-220" type="curve"/>
      <point x="216" y="-218" type="line"/>
      <point x="275" y="-218"/>
      <point x="319" y="-184"/>
      <point x="319" y="-130" type="curve" smooth="yes"/>
      <point x="319" y="-92"/>
      <point x="292" y="-79"/>
    </contour>
  </outline>
</glyph>
<glyph name="AE" format="2">
  <advance width="8240"/>
  <unicode hex="00C6"/>
  <outline>
    <contour>
      <point x="5712" y="6000" type="line"/>
      <point x="8992" y="6000" type="line"/>
      <point x="8608" y="4360" type="line"/>
      <point x="8592" y="4360" type="line"/>
      <point x="8672" y="5216"/>
      <point x="8248" y="5984"/>
      <point x="7312" y="5984" type="curve" smooth="yes"/>
      <point x="5712" y="5984" type="line"/>
    </contour>
    <contour>
      <point x="6024" y="3096" type="curve" smooth="yes"/>
      <point x="5496" y="3096" type="line"/>
      <point x="5496" y="3112" type="line"/>
      <point x="6024" y="3112" type="line" smooth="yes"/>
      <point x="6480" y="3112"/>
      <point x="7040" y="3528"/>
      <point x="7280" y="4064" type="curve"/>
      <point x="7296" y="4064" type="line"/>
      <point x="6848" y="2104" type="line"/>
      <point x="6832" y="2104" type="line"/>
      <point x="6832" y="2640"/>
      <point x="6480" y="3096"/>
    </contour>
    <contour>
      <point x="7680" y="0" type="line"/>
      <point x="3200" y="0" type="line"/>
      <point x="3200" y="16" type="line"/>
      <point x="5920" y="16" type="line" smooth="yes"/>
      <point x="7016" y="16"/>
      <point x="7728" y="784"/>
      <point x="8080" y="1800" type="curve"/>
      <point x="8096" y="1800" type="line"/>
    </contour>
    <contour>
      <point x="5272" y="6000" type="line"/>
      <point x="6512" y="6000" type="line"/>
      <point x="5120" y="0" type="line"/>
      <point x="3880" y="0" type="line"/>
    </contour>
    <contour>
      <point x="2120" y="1968" type="line"/>
      <point x="4440" y="1968" type="line"/>
      <point x="4440" y="1952" type="line"/>
      <point x="2120" y="1952" type="line"/>
    </contour>
    <contour>
      <point x="5256" y="6000" type="line"/>
      <point x="5280" y="6000" type="line"/>
      <point x="600" y="0" type="line"/>
      <point x="576" y="0" type="line"/>
    </contour>
    <contour>
      <point x="-200" y="16" type="line"/>
      <point x="1560" y="16" type="line"/>
      <point x="1560" y="0" type="line"/>
      <point x="-200" y="0" type="line"/>
    </contour>
  </outline>
</glyph>
<glyph name="multiply" format="2">
  <advance width="530"/>
  <unicode hex="00D7"/>
  <outline>
    <contour>
      <point x="409" y="169" type="line"/>
      <point x="184" y="459" type="line"/>
      <point x="186" y="461" type="line"/>
      <point x="411" y="171" type="line"/>
    </contour>
    <contour>
      <point x="118" y="172" type="line"/>
      <point x="473" y="462" type="line"/>
      <point x="475" y="460" type="line"/>
      <point x="120" y="170" type="line"/>
    </contour>
  </outline>
</glyph>
<glyph name="germandbls" format="2">
  <advance width="3136"/>
  <unicode hex="00DF"/>
  <outline>
    <contour>
      <point x="3014" y="880" type="curve" smooth="yes"/>
      <point x="3014" y="204"/>
      <point x="2404" y="-40"/>
      <point x="1929" y="-40" type="curve" smooth="yes"/>
      <point x="1524" y="-40"/>
      <point x="1344" y="243"/>
      <point x="1344" y="558" type="curve" smooth="yes"/>
      <point x="1344" y="808"/>
      <point x="1495" y="988"/>
      <point x="1700" y="988" type="curve" smooth="yes"/>
      <point x="1884" y="988"/>
      <point x="2024" y="864"/>
      <point x="2024" y="676" type="curve" smooth="yes"/>
      <point x="2024" y="504"/>
      <point x="1836" y="368"/>
      <point x="1676" y="368" type="curve" smooth="yes"/>
      <point x="1508" y="368"/>
      <point x="1386" y="474"/>
      <point x="1354" y="596" type="curve"/>
      <point x="1329" y="254"/>
      <point x="1532" y="-24"/>
      <point x="1888" y="-24" type="curve" smooth="yes"/>
      <point x="2252" y="-24"/>
      <point x="2376" y="515"/>
      <point x="2376" y="901" type="curve" smooth="yes"/>
      <point x="2376" y="1287"/>
      <point x="2221" y="1654"/>
      <point x="1856" y="1654" type="curve"/>
      <point x="1856" y="1662" type="line"/>
      <point x="2598" y="1662"/>
      <point x="3014" y="1412"/>
    </contour>
    <contour>
      <point x="-102" y="8" type="line"/>
      <point x="1250" y="8" type="line"/>
      <point x="1250" y="0" type="line"/>
      <point x="-102" y="0" type="line"/>
    </contour>
    <contour>
      <point x="1856" y="1658" type="curve"/>
      <point x="1856" y="1668" type="line"/>
      <point x="2384" y="1668"/>
      <point x="2621" y="2180"/>
      <point x="2621" y="2524" type="curve" smooth="yes"/>
      <point x="2621" y="2818"/>
      <point x="2507" y="3104"/>
      <point x="2204" y="3104" type="curve" smooth="yes"/>
      <point x="1614" y="3104"/>
      <point x="1458" y="2522"/>
      <point x="1332" y="1970" type="curve" smooth="yes"/>
      <point x="880" y="0" type="line"/>
      <point x="266" y="0" type="line"/>
      <point x="726" y="2012" type="line" smooth="yes"/>
      <point x="890" y="2743"/>
      <point x="1414" y="3112"/>
      <point x="2224" y="3112" type="curve" smooth="yes"/>
      <point x="2768" y="3112"/>
      <point x="3270" y="2925"/>
      <point x="3270" y="2462" type="curve" smooth="yes"/>
      <point x="3270" y="1971"/>
      <point x="2680" y="1658"/>
    </contour>
  </outline>
</glyph>
<glyph name="eth" format="2">
  <advance width="2497"/>
  <unicode hex="00F0"/>
  <outline>
    <contour>
      <point x="962" y="2580" type="line"/>
      <point x="2764" y="2580" type="line"/>
      <point x="2764" y="2572" type="line"/>
      <point x="962" y="2572" type="line"/>
    </contour>
    <contour>
      <point x="2486" y="1597" type="curve" smooth="yes"/>
      <point x="2486" y="737"/>
      <point x="1788" y="-40"/>
      <point x="1068" y="-40" type="curve" smooth="yes"/>
      <point x="511" y="-40"/>
      <point x="164" y="205"/>
      <point x="164" y="737" type="curve" smooth="yes"/>
      <point x="164" y="1556"/>
      <point x="893" y="2008"/>
      <point x="1389" y="2008" type="curve" smooth="yes"/>
      <point x="1743" y="2008"/>
      <point x="1806" y="1780"/>
      <point x="1786" y="1300" type="curve"/>
      <point x="1778" y="1516" type="line"/>
      <point x="1778" y="1741"/>
      <point x="1705" y="1964"/>
      <point x="1520" y="1964" type="curve" smooth="yes"/>
      <point x="1135" y="1964"/>
      <point x="793" y="1061"/>
      <point x="793" y="492" type="curve" smooth="yes"/>
      <point x="793" y="209"/>
      <point x="840" y="-32"/>
      <point x="1062" y="-32" type="curve" smooth="yes"/>
      <point x="1406" y="-32"/>
      <point x="1778" y="947"/>
      <point x="1778" y="1516" type="curve"/>
      <point x="1778" y="1516" type="line"/>
      <point x="1798" y="2426"/>
      <point x="1778" y="3104"/>
      <point x="983" y="3104" type="curve"/>
      <point x="983" y="3112" type="line"/>
      <point x="1999" y="3112"/>
      <point x="2486" y="2449"/>
    </contour>
  </outline>
</glyph>
<glyph name="thorn" format="2">
  <advance width="611"/>
  <unicode hex="00FE"/>
  <outline>
    <contour>
      <point x="220" y="146" type="curve" smooth="yes"/>
      <point x="220" y="83"/>
      <point x="235" y="21"/>
      <point x="276" y="21" type="curve" smooth="yes"/>
      <point x="345" y="21"/>
      <point x="430" y="200"/>
      <point x="430" y="334" type="curve" smooth="yes"/>
      <point x="430" y="398"/>
      <point x="409" y="440"/>
      <point x="373" y="440" type="curve" smooth="yes"/>
      <point x="285" y="440"/>
      <point x="220" y="255"/>
    </contour>
    <contour>
      <point x="218" y="146" type="curve" smooth="yes"/>
      <point x="218" y="254"/>
      <point x="282" y="470"/>
      <point x="423" y="470" type="curve" smooth="yes"/>
      <point x="492" y="470"/>
      <point x="584" y="430"/>
      <point x="584" y="300" type="curve" smooth="yes"/>
      <point x="584" y="100"/>
      <point x="425" y="-10"/>
      <point x="321" y="-10" type="curve" smooth="yes"/>
      <point x="245" y="-10"/>
      <point x="218" y="54"/>
    </contour>
    <contour>
      <point x="-85" y="-248" type="line"/>
      <point x="190" y="-248" type="line"/>
      <point x="190" y="-250" type="line"/>
      <point x="-85" y="-250" type="line"/>
    </contour>
    <contour>
      <point x="209" y="748" type="line"/>
      <point x="138" y="748" type="line"/>
      <point x="138" y="750" type="line"/>
      <point x="350" y="750" type="line"/>
      <point x="244" y="288" type="line"/>
      <point x="227" y="224" type="line"/>
      <point x="220" y="174" type="line"/>
      <point x="120" y="-250" type="line"/>
      <point x="-20" y="-250" type="line"/>
    </contour>
  </outline>
</glyph>
<glyph name="dotlessi" format="2">
  <advance width="366"/>
  <unicode hex="0131"/>
  <outline>
    <contour>
      <point x="346" y="163" type="line"/>
      <point x="308" y="63"/>
      <point x="240" y="-10"/>
      <point x="144" y="-10" type="curve" smooth="yes"/>
      <point x="82" y="-10"/>
      <point x="50" y="13"/>
      <point x="50" y="73" type="curve" smooth="yes"/>
      <point x="50" y="78"/>
      <point x="50" y="89"/>
      <point x="52" y="95" type="curve" smooth="yes"/>
      <point x="139" y="458" type="line"/>
      <point x="62" y="458" type="line"/>
      <point x="62" y="460" type="line"/>
      <point x="280" y="460" type="line"/>
      <point x="179" y="46" type="line" smooth="yes"/>
      <point x="178" y="40"/>
      <point x="177" y="33"/>
      <point x="177" y="28" type="curve" smooth="yes"/>
      <point x="177" y="17"/>
      <point x="182" y="6"/>
      <point x="195" y="6" type="curve" smooth="yes"/>
      <point x="247" y="6"/>
      <point x="311" y="70"/>
      <point x="346" y="164" type="curve"/>
    </contour>
  </outline>
</glyph>
<glyph name="OE" format="2">
  <advance width="4154"/>
  <unicode hex="0152"/>
  <outline>
    <contour>
      <point x="2105" y="3072" type="curve"/>
      <point x="2105" y="3027" type="line"/>
      <point x="1392" y="3027"/>
      <point x="928" y="1666"/>
      <point x="928" y="716" type="curve" smooth="yes"/>
      <point x="928" y="318"/>
      <point x="1049" y="45"/>
      <point x="1413" y="45" type="curve"/>
      <point x="1413" y="0" type="line"/>
      <point x="787" y="0"/>
      <point x="252" y="294"/>
      <point x="252" y="1024" type="curve" smooth="yes"/>
      <point x="252" y="2224"/>
      <point x="1151" y="3072"/>
    </contour>
    <component base="E" xOffset="1608"/>
  </outline>
</glyph>
<glyph name="uni0213" format="2">
  <advance width="476"/>
  <unicode hex="0213"/>
  <outline>
    <contour>
      <point x="430" y="535" type="line"/>
      <point x="438" y="578"/>
      <point x="386" y="599"/>
      <point x="332" y="599" type="curve" smooth="yes"/>
      <point x="278" y="599"/>
      <point x="207" y="584"/>
      <point x="194" y="535" type="curve"/>
      <point x="192" y="535" type="line"/>
      <point x="202" y="596"/>
      <point x="237" y="694"/>
      <point x="342" y="694" type="curve" smooth="yes"/>
      <point x="442" y="694"/>
      <point x="442" y="596"/>
      <point x="432" y="535" type="curve"/>
    </contour>
    <component base="r"/>
  </outline>
</glyph>
<glyph name="uni0237" format="2">
  <advance width="299"/>
  <unicode hex="0237"/>
  <outline>
    <contour>
      <point x="-196" y="-169" type="curve"/>
      <point x="-184" y="-213"/>
      <point x="-134" y="-257"/>
      <point x="-72" y="-257" type="curve" smooth="yes"/>
      <point x="23" y="-257"/>
      <point x="17" y="-100"/>
      <point x="45" y="20" type="curve" smooth="yes"/>
      <point x="147" y="458" type="line"/>
      <point x="53" y="458" type="line"/>
      <point x="53" y="460" type="line"/>
      <point x="286" y="460" type="line"/>
      <point x="188" y="-12" type="line" smooth="yes"/>
      <point x="162" y="-137"/>
      <point x="63" y="-260"/>
      <point x="-67" y="-260" type="curve" smooth="yes"/>
      <point x="-148" y="-260"/>
      <point x="-205" y="-198"/>
      <point x="-205" y="-146" type="curve" smooth="yes"/>
      <point x="-205" y="-95"/>
      <point x="-163" y="-59"/>
      <point x="-118" y="-59" type="curve" smooth="yes"/>
      <point x="-78" y="-59"/>
      <point x="-42" y="-88"/>
      <point x="-42" y="-130" type="curve" smooth="yes"/>
      <point x="-42" y="-177"/>
      <point x="-82" y="-210"/>
      <point x="-128" y="-210" type="curve" smooth="yes"/>
      <point x="-164" y="-210"/>
      <point x="-184" y="-189"/>
    </contour>
  </outline>
</glyph>
<glyph name="caron" format="2">
  <advance width="1781"/>
  <unicode hex="02C7"/>
  <outline>
    <contour>
      <point x="1284" y="2970" type="line"/>
      <point x="2048" y="3240" type="line"/>
      <point x="2052" y="3236" type="line"/>
      <point x="1454" y="2682" type="line"/>
      <point x="1106" y="2682" type="line"/>
      <point x="680" y="3236" type="line"/>
      <point x="684" y="3240" type="line"/>
    </contour>
  </outline>
</glyph>
<glyph name="ring" format="2">
  <advance width="320"/>
  <unicode hex="02DA"/>
  <outline>
    <contour>
      <point x="178" y="680" type="curve" smooth="yes"/>
      <point x="178" y="731"/>
      <point x="219" y="770"/>
      <point x="280" y="770" type="curve" smooth="yes"/>
      <point x="341" y="770"/>
      <point x="382" y="731"/>
      <point x="382" y="680" type="curve" smooth="yes"/>
      <point x="382" y="629"/>
      <point x="341" y="590"/>
      <point x="280" y="590" type="curve" smooth="yes"/>
      <point x="219" y="590"/>
      <point x="178" y="629"/>
    </contour>
    <contour>
      <point x="236" y="642" type="curve" smooth="yes"/>
      <point x="236" y="615"/>
      <point x="243" y="592"/>
      <point x="270" y="592" type="curve" smooth="yes"/>
      <point x="302" y="592"/>
      <point x="324" y="681"/>
      <point x="324" y="718" type="curve" smooth="yes"/>
      <point x="324" y="745"/>
      <point x="317" y="768"/>
      <point x="290" y="768" type="curve" smooth="yes"/>
      <point x="258" y="768"/>
      <point x="236" y="679"/>
    </contour>
  </outline>
</glyph>
<glyph name="tilde" format="2">
  <advance width="1834"/>
  <unicode hex="02DC"/>
  <outline>
    <contour>
      <point x="913" y="2678" type="curve" smooth="yes"/>
      <point x="778" y="2678"/>
      <point x="684" y="2630"/>
      <point x="602" y="2458" type="curve"/>
      <point x="594" y="2458" type="line"/>
      <point x="676" y="2806"/>
      <point x="860" y="3040"/>
      <point x="1122" y="3040" type="curve" smooth="yes"/>
      <point x="1408" y="3040"/>
      <point x="1593" y="2716"/>
      <point x="1823" y="2716" type="curve" smooth="yes"/>
      <point x="1958" y="2716"/>
      <point x="2052" y="2764"/>
      <point x="2134" y="2936" type="curve"/>
      <point x="2142" y="2936" type="line"/>
      <point x="2060" y="2546"/>
      <point x="1917" y="2355"/>
      <point x="1655" y="2355" type="curve" smooth="yes"/>
      <point x="1339" y="2355"/>
      <point x="1171" y="2678"/>
    </contour>
  </outline>
</glyph>
<glyph name="pi" format="2">
  <advance width="5128"/>
  <unicode hex="03C0"/>
  <outline>
    <contour>
      <point x="792" y="-80" type="curve" smooth="yes"/>
      <point x="424" y="-80"/>
      <point x="200" y="144"/>
      <point x="200" y="424" type="curve" smooth="yes"/>
      <point x="200" y="1248"/>
      <point x="1304" y="760"/>
      <point x="1760" y="2312" type="curve" smooth="yes"/>
      <point x="2136" y="3600" type="line"/>
      <point x="2584" y="3600" type="line"/>
      <point x="2144" y="1944" type="line" smooth="yes"/>
      <point x="1832" y="760"/>
      <point x="1616" y="-80"/>
    </contour>
    <contour>
      <point x="4688" y="824" type="line"/>
      <point x="4464" y="264"/>
      <point x="4088" y="-80"/>
      <point x="3464" y="-80" type="curve" smooth="yes"/>
      <point x="2928" y="-80"/>
      <point x="2560" y="328"/>
      <point x="2688" y="848" type="curve" smooth="yes"/>
      <point x="3328" y="3360" type="line"/>
      <point x="4528" y="3360" type="line"/>
      <point x="3824" y="768" type="line" smooth="yes"/>
      <point x="3744" y="472"/>
      <point x="3872" y="360"/>
      <point x="4064" y="360" type="curve" smooth="yes"/>
      <point x="4384" y="360"/>
      <point x="4528" y="552"/>
      <point x="4680" y="832" type="curve"/>
    </contour>
    <contour>
      <point x="5248" y="3680" type="line"/>
      <point x="4912" y="2560" type="line"/>
      <point x="608" y="2560" type="line"/>
      <point x="464" y="1960" type="line"/>
      <point x="448" y="1960" type="line"/>
      <point x="856" y="3680" type="line"/>
    </contour>
  </outline>
</glyph>
<glyph name="uni1E9E" format="2">
  <advance width="856"/>
  <unicode hex="1E9E"/>
  <outline>
    <contour>
      <point x="336" y="146" type="curve" smooth="yes"/>
      <point x="336" y="200"/>
      <point x="370" y="241"/>
      <point x="420" y="241" type="curve" smooth="yes"/>
      <point x="465" y="241"/>
      <point x="499" y="211"/>
      <point x="499" y="165" type="curve" smooth="yes"/>
      <point x="499" y="123"/>
      <point x="456" y="90"/>
      <point x="417" y="90" type="curve" smooth="yes"/>
      <point x="371" y="90"/>
      <point x="350" y="117"/>
      <point x="340" y="139" type="curve"/>
      <point x="342" y="55"/>
      <point x="403" y="-5"/>
      <point x="504" y="-5" type="curve" smooth="yes"/>
      <point x="618" y="-5"/>
      <point x="668" y="136"/>
      <point x="668" y="240" type="curve" smooth="yes"/>
      <point x="668" y="324"/>
      <point x="637" y="404"/>
      <point x="543" y="404" type="curve"/>
      <point x="543" y="406" type="line"/>
      <point x="734" y="406"/>
      <point x="826" y="355"/>
      <point x="826" y="235" type="curve" smooth="yes"/>
      <point x="826" y="65"/>
      <point x="669" y="-10"/>
      <point x="518" y="-10" type="curve" smooth="yes"/>
      <point x="385" y="-10"/>
      <point x="336" y="65"/>
    </contour>
    <contour>
      <point x="-25" y="2" type="line"/>
      <point x="310" y="2" type="line"/>
      <point x="310" y="0" type="line"/>
      <point x="-25" y="0" type="line"/>
    </contour>
    <contour>
      <point x="543" y="405" type="curve"/>
      <point x="543" y="407" type="line"/>
      <point x="697" y="407"/>
      <point x="728" y="552"/>
      <point x="728" y="626" type="curve" smooth="yes"/>
      <point x="728" y="688"/>
      <point x="697" y="758"/>
      <point x="593" y="758" type="curve" smooth="yes"/>
      <point x="424" y="758"/>
      <point x="359" y="605"/>
      <point x="325" y="456" type="curve" smooth="yes"/>
      <point x="220" y="0" type="line"/>
      <point x="65" y="0" type="line"/>
      <point x="172" y="466" type="line" smooth="yes"/>
      <point x="216" y="658"/>
      <point x="370" y="760"/>
      <point x="598" y="760" type="curve" smooth="yes"/>
      <point x="776" y="760"/>
      <point x="888" y="709"/>
      <point x="888" y="606" type="curve" smooth="yes"/>
      <point x="888" y="501"/>
      <point x="769" y="405"/>
    </contour>
  </outline>
</glyph>
<glyph name="uni2031" format="2">
  <advance width="15960"/>
  <unicode hex="2031"/>
  <outline>
    <contour>
      <point x="13800" y="-80" type="curve" smooth="yes"/>
      <point x="12976" y="-80"/>
      <point x="12400" y="296"/>
      <point x="12400" y="1120" type="curve" smooth="yes"/>
      <point x="12400" y="2424"/>
      <point x="13376" y="3440"/>
      <point x="14520" y="3440" type="curve" smooth="yes"/>
      <point x="15344" y="3440"/>
      <point x="15920" y="3064"/>
      <point x="15920" y="2240" type="curve" smooth="yes"/>
      <point x="15920" y="936"/>
      <point x="14944" y="-80"/>
    </contour>
    <contour>
      <point x="14560" y="3424" type="curve" smooth="yes"/>
      <point x="14088" y="3424"/>
      <point x="13480" y="1480"/>
      <point x="13480" y="624" type="curve" smooth="yes"/>
      <point x="13480" y="248"/>
      <point x="13568" y="-64"/>
      <point x="13760" y="-64" type="curve" smooth="yes"/>
      <point x="14232" y="-64"/>
      <point x="14816" y="1832"/>
      <point x="14816" y="2688" type="curve" smooth="yes"/>
      <point x="14816" y="3064"/>
      <point x="14752" y="3424"/>
    </contour>
    <contour>
      <point x="9800" y="-80" type="curve" smooth="yes"/>
      <point x="8976" y="-80"/>
      <point x="8400" y="296"/>
      <point x="8400" y="1120" type="curve" smooth="yes"/>
      <point x="8400" y="2424"/>
      <point x="9376" y="3440"/>
      <point x="10520" y="3440" type="curve" smooth="yes"/>
      <point x="11344" y="3440"/>
      <point x="11920" y="3064"/>
      <point x="11920" y="2240" type="curve" smooth="yes"/>
      <point x="11920" y="936"/>
      <point x="10944" y="-80"/>
    </contour>
    <contour>
      <point x="10560" y="3424" type="curve" smooth="yes"/>
      <point x="10088" y="3424"/>
      <point x="9480" y="1480"/>
      <point x="9480" y="624" type="curve" smooth="yes"/>
      <point x="9480" y="248"/>
      <point x="9568" y="-64"/>
      <point x="9760" y="-64" type="curve" smooth="yes"/>
      <point x="10232" y="-64"/>
      <point x="10816" y="1832"/>
      <point x="10816" y="2688" type="curve" smooth="yes"/>
      <point x="10816" y="3064"/>
      <point x="10752" y="3424"/>
    </contour>
    <contour>
      <point x="5840" y="-80" type="curve" smooth="yes"/>
      <point x="5016" y="-80"/>
      <point x="4440" y="296"/>
      <point x="4440" y="1120" type="curve" smooth="yes"/>
      <point x="4440" y="2424"/>
      <point x="5416" y="3440"/>
      <point x="6560" y="3440" type="curve" smooth="yes"/>
      <point x="7384" y="3440"/>
      <point x="7960" y="3064"/>
      <point x="7960" y="2240" type="curve" smooth="yes"/>
      <point x="7960" y="936"/>
      <point x="6984" y="-80"/>
    </contour>
    <contour>
      <point x="6600" y="3424" type="curve" smooth="yes"/>
      <point x="6128" y="3424"/>
      <point x="5520" y="1480"/>
      <point x="5520" y="624" type="curve" smooth="yes"/>
      <point x="5520" y="248"/>
      <point x="5608" y="-64"/>
      <point x="5800" y="-64" type="curve" smooth="yes"/>
      <point x="6272" y="-64"/>
      <point x="6864" y="1832"/>
      <point x="6864" y="2688" type="curve" smooth="yes"/>
      <point x="6864" y="3064"/>
      <point x="6792" y="3424"/>
    </contour>
    <contour>
      <point x="7144" y="6000" type="line"/>
      <point x="7160" y="6000" type="line"/>
      <point x="1560" y="0" type="line"/>
      <point x="1544" y="0" type="line"/>
    </contour>
    <contour>
      <point x="2200" y="2560" type="curve" smooth="yes"/>
      <point x="1376" y="2560"/>
      <point x="800" y="2936"/>
      <point x="800" y="3760" type="curve" smooth="yes"/>
      <point x="800" y="5064"/>
      <point x="1776" y="6080"/>
      <point x="2920" y="6080" type="curve" smooth="yes"/>
      <point x="3744" y="6080"/>
      <point x="4320" y="5704"/>
      <point x="4320" y="4880" type="curve" smooth="yes"/>
      <point x="4320" y="3576"/>
      <point x="3344" y="2560"/>
    </contour>
    <contour>
      <point x="2960" y="6064" type="curve" smooth="yes"/>
      <point x="2488" y="6064"/>
      <point x="1880" y="4120"/>
      <point x="1880" y="3264" type="curve" smooth="yes"/>
      <point x="1880" y="2888"/>
      <point x="1968" y="2576"/>
      <point x="2160" y="2576" type="curve" smooth="yes"/>
      <point x="2632" y="2576"/>
      <point x="3216" y="4544"/>
      <point x="3216" y="5400" type="curve" smooth="yes"/>
      <point x="3216" y="5776"/>
      <point x="3152" y="6064"/>
    </contour>
  </outline>
</glyph>
<glyph name="uni203D" format="2">
  <advance width="4800"/>
  <unicode hex="203D"/>
  <outline>
    <contour>
      <point x="3504" y="4352" type="curve" smooth="yes"/>
      <point x="3360" y="3504"/>
      <point x="2560" y="3144"/>
      <point x="2240" y="1944" type="curve"/>
      <point x="2224" y="1944" type="line"/>
      <point x="2464" y="3144"/>
      <point x="2320" y="3464"/>
      <point x="2320" y="4072" type="curve" smooth="yes"/>
      <point x="2320" y="4600"/>
      <point x="2480" y="4984"/>
      <point x="2952" y="4984" type="curve" smooth="yes"/>
      <point x="3312" y="4984"/>
      <point x="3568" y="4720"/>
    </contour>
    <contour>
      <point x="4032" y="4880" type="curve" smooth="yes"/>
      <point x="4032" y="5472"/>
      <point x="3800" y="6048"/>
      <point x="3048" y="6048" type="curve" smooth="yes"/>
      <point x="2096" y="6048"/>
      <point x="1184" y="5392"/>
      <point x="1008" y="4832" type="curve"/>
      <point x="1104" y="4944"/>
      <point x="1328" y="5128"/>
      <point x="1576" y="5128" type="curve" smooth="yes"/>
      <point x="1848" y="5128"/>
      <point x="2152" y="4928"/>
      <point x="2152" y="4544" type="curve" smooth="yes"/>
      <point x="2152" y="4104"/>
      <point x="1776" y="3912"/>
      <point x="1496" y="3912" type="curve" smooth="yes"/>
      <point x="1176" y="3912"/>
      <point x="920" y="4160"/>
      <point x="920" y="4568" type="curve" smooth="yes"/>
      <point x="920" y="5304"/>
      <point x="1992" y="6080"/>
      <point x="3128" y="6080" type="curve" smooth="yes"/>
      <point x="4176" y="6080"/>
      <point x="5160" y="5720"/>
      <point x="5160" y="4720" type="curve" smooth="yes"/>
      <point x="5160" y="3520"/>
      <point x="3736" y="2680"/>
      <point x="2488" y="2680" type="curve"/>
      <point x="2488" y="2688" type="line"/>
      <point x="3304" y="2936"/>
      <point x="4032" y="3896"/>
    </contour>
    <component base="period" xOffset="1072"/>
  </outline>
</glyph>
<glyph name="uni2116" format="2">
  <advance width="9168"/>
  <unicode hex="2116"/>
  <outline>
    <contour>
      <point x="6672" y="2528" type="line"/>
      <point x="8712" y="2528" type="line"/>
      <point x="8704" y="2512" type="line"/>
      <point x="6664" y="2512" type="line"/>
    </contour>
    <contour>
      <point x="8512" y="6080" type="curve" smooth="yes"/>
      <point x="9216" y="6080"/>
      <point x="9688" y="5720"/>
      <point x="9688" y="5016" type="curve" smooth="yes"/>
      <point x="9688" y="3768"/>
      <point x="8744" y="3040"/>
      <point x="7808" y="3040" type="curve" smooth="yes"/>
      <point x="7104" y="3040"/>
      <point x="6624" y="3400"/>
      <point x="6624" y="4104" type="curve" smooth="yes"/>
      <point x="6624" y="5352"/>
      <point x="7576" y="6080"/>
    </contour>
    <contour>
      <point x="7480" y="3680" type="curve" smooth="yes"/>
      <point x="7480" y="3216"/>
      <point x="7600" y="3056"/>
      <point x="7840" y="3056" type="curve" smooth="yes"/>
      <point x="8336" y="3056"/>
      <point x="8832" y="4520"/>
      <point x="8832" y="5440" type="curve" smooth="yes"/>
      <point x="8832" y="5904"/>
      <point x="8712" y="6064"/>
      <point x="8472" y="6064" type="curve" smooth="yes"/>
      <point x="7976" y="6064"/>
      <point x="7480" y="4600"/>
    </contour>
    <component base="N" xOffset="208"/>
  </outline>
</glyph>
<glyph name="uniFB00" format="2">
  <advance width="5800"/>
  <unicode hex="FB00"/>
  <outline>
    <contour>
      <point x="552" y="3680" type="line"/>
      <point x="5952" y="3680" type="line"/>
      <point x="5952" y="3664" type="line"/>
      <point x="552" y="3664" type="line"/>
    </contour>
    <contour>
      <point x="7024" y="5376" type="curve"/>
      <point x="6944" y="5696"/>
      <point x="6544" y="6056"/>
      <point x="6016" y="6056" type="curve" smooth="yes"/>
      <point x="5456" y="6056"/>
      <point x="5088" y="5296"/>
      <point x="4912" y="4320" type="curve" smooth="yes"/>
      <point x="4208" y="304" type="line" smooth="yes"/>
      <point x="3984" y="-976"/>
      <point x="3096" y="-1680"/>
      <point x="2016" y="-1680" type="curve" smooth="yes"/>
      <point x="1208" y="-1680"/>
      <point x="816" y="-1184"/>
      <point x="816" y="-768" type="curve" smooth="yes"/>
      <point x="816" y="-360"/>
      <point x="1072" y="-112"/>
      <point x="1432" y="-112" type="curve" smooth="yes"/>
      <point x="1752" y="-112"/>
      <point x="2080" y="-304"/>
      <point x="2080" y="-704" type="curve" smooth="yes"/>
      <point x="2080" y="-1104"/>
      <point x="1792" y="-1328"/>
      <point x="1440" y="-1328" type="curve" smooth="yes"/>
      <point x="1184" y="-1328"/>
      <point x="960" y="-1168"/>
      <point x="880" y="-976" type="curve"/>
      <point x="960" y="-1296"/>
      <point x="1352" y="-1656"/>
      <point x="1928" y="-1656" type="curve" smooth="yes"/>
      <point x="2528" y="-1656"/>
      <point x="2896" y="-896"/>
      <point x="3072" y="80" type="curve" smooth="yes"/>
      <point x="3776" y="4096" type="line" smooth="yes"/>
      <point x="4000" y="5376"/>
      <point x="4880" y="6080"/>
      <point x="5920" y="6080" type="curve" smooth="yes"/>
      <point x="6688" y="6080"/>
      <point x="7080" y="5584"/>
      <point x="7080" y="5168" type="curve" smooth="yes"/>
      <point x="7080" y="4760"/>
      <point x="6824" y="4512"/>
      <point x="6464" y="4512" type="curve" smooth="yes"/>
      <point x="6144" y="4512"/>
      <point x="5816" y="4704"/>
      <point x="5816" y="5104" type="curve" smooth="yes"/>
      <point x="5816" y="5504"/>
      <point x="6112" y="5728"/>
      <point x="6464" y="5728" type="curve" smooth="yes"/>
      <point x="6720" y="5728"/>
      <point x="6944" y="5568"/>
    </contour>
    <contour>
      <point x="4544" y="4976" type="curve"/>
      <point x="4464" y="5296"/>
      <point x="4064" y="5656"/>
      <point x="3488" y="5656" type="curve" smooth="yes"/>
      <point x="2888" y="5656"/>
      <point x="2528" y="4896"/>
      <point x="2352" y="3920" type="curve" smooth="yes"/>
      <point x="1648" y="-96" type="line" smooth="yes"/>
      <point x="1424" y="-1376"/>
      <point x="544" y="-2080"/>
      <point x="-496" y="-2080" type="curve" smooth="yes"/>
      <point x="-1264" y="-2080"/>
      <point x="-1664" y="-1584"/>
      <point x="-1664" y="-1168" type="curve" smooth="yes"/>
      <point x="-1664" y="-760"/>
      <point x="-1408" y="-512"/>
      <point x="-1048" y="-512" type="curve" smooth="yes"/>
      <point x="-728" y="-512"/>
      <point x="-400" y="-704"/>
      <point x="-400" y="-1104" type="curve" smooth="yes"/>
      <point x="-400" y="-1504"/>
      <point x="-688" y="-1728"/>
      <point x="-1040" y="-1728" type="curve" smooth="yes"/>
      <point x="-1296" y="-1728"/>
      <point x="-1520" y="-1568"/>
      <point x="-1600" y="-1376" type="curve"/>
      <point x="-1520" y="-1696"/>
      <point x="-1120" y="-2056"/>
      <point x="-592" y="-2056" type="curve" smooth="yes"/>
      <point x="-32" y="-2056"/>
      <point x="336" y="-1296"/>
      <point x="512" y="-320" type="curve" smooth="yes"/>
      <point x="1216" y="3696" type="line" smooth="yes"/>
      <point x="1440" y="4976"/>
      <point x="2320" y="5680"/>
      <point x="3400" y="5680" type="curve" smooth="yes"/>
      <point x="4208" y="5680"/>
      <point x="4600" y="5184"/>
      <point x="4600" y="4768" type="curve" smooth="yes"/>
      <point x="4600" y="4360"/>
      <point x="4344" y="4112"/>
      <point x="3984" y="4112" type="curve" smooth="yes"/>
      <point x="3664" y="4112"/>
      <point x="3336" y="4304"/>
      <point x="3336" y="4704" type="curve" smooth="yes"/>
      <point x="3336" y="5104"/>
      <point x="3632" y="5328"/>
      <point x="3984" y="5328" type="curve" smooth="yes"/>
      <point x="4240" y="5328"/>
      <point x="4464" y="5168"/>
    </contour>
  </outline>
</glyph>
<glyph name="uniFB01" format="2">
  <advance width="688"/>
  <unicode hex="FB01"/>
  <outline>
    <contour>
      <point x="668" y="163" type="line"/>
      <point x="630" y="63"/>
      <point x="562" y="-10"/>
      <point x="466" y="-10" type="curve" smooth="yes"/>
      <point x="404" y="-10"/>
      <point x="372" y="13"/>
      <point x="372" y="73" type="curve" smooth="yes"/>
      <point x="372" y="78"/>
      <point x="372" y="89"/>
      <point x="374" y="95" type="curve" smooth="yes"/>
      <point x="461" y="458" type="line"/>
      <point x="70" y="458" type="line"/>
      <point x="70" y="460" type="line"/>
      <point x="602" y="460" type="line"/>
      <point x="501" y="46" type="line" smooth="yes"/>
      <point x="500" y="40"/>
      <point x="499" y="33"/>
      <point x="499" y="28" type="curve" smooth="yes"/>
      <point x="499" y="17"/>
      <point x="504" y="6"/>
      <point x="517" y="6" type="curve" smooth="yes"/>
      <point x="569" y="6"/>
      <point x="633" y="70"/>
      <point x="668" y="164" type="curve"/>
    </contour>
    <contour>
      <point x="614" y="672" type="curve"/>
      <point x="602" y="718"/>
      <point x="548" y="757"/>
      <point x="472" y="757" type="curve" smooth="yes"/>
      <point x="382" y="757"/>
      <point x="326" y="667"/>
      <point x="304" y="540" type="curve" smooth="yes"/>
      <point x="206" y="-12" type="line" smooth="yes"/>
      <point x="178" y="-172"/>
      <point x="68" y="-260"/>
      <point x="-62" y="-260" type="curve" smooth="yes"/>
      <point x="-158" y="-260"/>
      <point x="-208" y="-198"/>
      <point x="-208" y="-146" type="curve" smooth="yes"/>
      <point x="-208" y="-95"/>
      <point x="-176" y="-64"/>
      <point x="-131" y="-64" type="curve" smooth="yes"/>
      <point x="-91" y="-64"/>
      <point x="-50" y="-88"/>
      <point x="-50" y="-138" type="curve" smooth="yes"/>
      <point x="-50" y="-188"/>
      <point x="-86" y="-216"/>
      <point x="-130" y="-216" type="curve" smooth="yes"/>
      <point x="-162" y="-216"/>
      <point x="-190" y="-196"/>
      <point x="-200" y="-172" type="curve"/>
      <point x="-190" y="-212"/>
      <point x="-140" y="-257"/>
      <point x="-74" y="-257" type="curve" smooth="yes"/>
      <point x="-4" y="-257"/>
      <point x="42" y="-162"/>
      <point x="64" y="-40" type="curve" smooth="yes"/>
      <point x="162" y="512" type="line" smooth="yes"/>
      <point x="190" y="672"/>
      <point x="310" y="760"/>
      <point x="460" y="760" type="curve" smooth="yes"/>
      <point x="570" y="760"/>
      <point x="620" y="703"/>
      <point x="620" y="646" type="curve" smooth="yes"/>
      <point x="620" y="595"/>
      <point x="589" y="564"/>
      <point x="544" y="564" type="curve" smooth="yes"/>
      <point x="504" y="564"/>
      <point x="462" y="588"/>
      <point x="462" y="638" type="curve" smooth="yes"/>
      <point x="462" y="688"/>
      <point x="498" y="716"/>
      <point x="542" y="716" type="curve" smooth="yes"/>
      <point x="574" y="716"/>
      <point x="604" y="696"/>
    </contour>
  </outline>
</glyph>
<glyph name="uniFB02" format="2">
  <advance width="5832"/>
  <unicode hex="FB02"/>
  <outline>
    <contour>
      <point x="5672" y="1304" type="line"/>
      <point x="5368" y="504"/>
      <point x="4816" y="-80"/>
      <point x="4048" y="-80" type="curve" smooth="yes"/>
      <point x="3552" y="-80"/>
      <point x="3296" y="104"/>
      <point x="3296" y="584" type="curve" smooth="yes"/>
      <point x="3296" y="624"/>
      <point x="3304" y="712"/>
      <point x="3312" y="760" type="curve" smooth="yes"/>
      <point x="4480" y="5840" type="line"/>
      <point x="5672" y="6160" type="line"/>
      <point x="4336" y="368" type="line" smooth="yes"/>
      <point x="4328" y="320"/>
      <point x="4320" y="264"/>
      <point x="4320" y="224" type="curve" smooth="yes"/>
      <point x="4320" y="136"/>
      <point x="4360" y="48"/>
      <point x="4464" y="48" type="curve" smooth="yes"/>
      <point x="4880" y="48"/>
      <point x="5392" y="584"/>
      <point x="5664" y="1312" type="curve"/>
    </contour>
    <contour>
      <point x="552" y="3680" type="line"/>
      <point x="3472" y="3680" type="line"/>
      <point x="3472" y="3664" type="line"/>
      <point x="552" y="3664" type="line"/>
    </contour>
    <contour>
      <point x="4800" y="5320" type="curve"/>
      <point x="4736" y="5336"/>
      <point x="4368" y="5424"/>
      <point x="4000" y="5424" type="curve" smooth="yes"/>
      <point x="3536" y="5424"/>
      <point x="3208" y="5096"/>
      <point x="3120" y="4768" type="curve"/>
      <point x="3120" y="4928"/>
      <point x="2864" y="2784"/>
      <point x="2976" y="2784" type="curve"/>
      <point x="2920" y="2008"/>
      <point x="2472" y="1736"/>
      <point x="1976" y="1664" type="curve"/>
      <point x="1512" y="1800"/>
      <point x="1160" y="2264"/>
      <point x="832" y="2512" type="curve" smooth="yes"/>
      <point x="512" y="2752"/>
      <point x="376" y="2536"/>
      <point x="528" y="2048" type="curve"/>
      <point x="752" y="2048"/>
      <point x="560" y="-304"/>
      <point x="560" y="-544" type="curve"/>
      <point x="464" y="-1288"/>
      <point x="-48" y="-1928"/>
      <point x="-800" y="-1928" type="curve" smooth="yes"/>
      <point x="-1304" y="-1928"/>
      <point x="-1560" y="-1608"/>
      <point x="-1616" y="-1320" type="curve"/>
      <point x="-1552" y="-1336"/>
      <point x="-1184" y="-1424"/>
      <point x="-816" y="-1424" type="curve" smooth="yes"/>
      <point x="-432" y="-1424"/>
      <point x="-136" y="-1096"/>
      <point x="-56" y="-768" type="curve"/>
      <point x="-56" y="-928"/>
      <point x="200" y="1216"/>
      <point x="88" y="1216" type="curve"/>
      <point x="144" y="1992"/>
      <point x="624" y="2256"/>
      <point x="1200" y="2336" type="curve"/>
      <point x="1664" y="2200"/>
      <point x="2064" y="1736"/>
      <point x="2352" y="1488" type="curve" smooth="yes"/>
      <point x="2632" y="1248"/>
      <point x="2680" y="1464"/>
      <point x="2528" y="1952" type="curve"/>
      <point x="2304" y="1952"/>
      <point x="2504" y="4304"/>
      <point x="2504" y="4544" type="curve"/>
      <point x="2600" y="5288"/>
      <point x="3184" y="5928"/>
      <point x="3984" y="5928" type="curve" smooth="yes"/>
      <point x="4520" y="5928"/>
      <point x="4744" y="5624"/>
    </contour>
  </outline>
</glyph>
<glyph name="uniFB03" format="2">
  <advance width="7984"/>
  <unicode hex="FB03"/>
  <outline>
    <contour>
      <point x="7824" y="1304" type="line"/>
      <point x="7520" y="504"/>
      <point x="6976" y="-80"/>
      <point x="6208" y="-80" type="curve" smooth="yes"/>
      <point x="5712" y="-80"/>
      <point x="5456" y="104"/>
      <point x="5456" y="584" type="curve" smooth="yes"/>
      <point x="5456" y="624"/>
      <point x="5456" y="712"/>
      <point x="5472" y="760" type="curve" smooth="yes"/>
      <point x="6168" y="3664" type="line"/>
      <point x="552" y="3664" type="line"/>
      <point x="552" y="3680" type="line"/>
      <point x="7296" y="3680" type="line"/>
      <point x="6488" y="368" type="line" smooth="yes"/>
      <point x="6480" y="320"/>
      <point x="6472" y="264"/>
      <point x="6472" y="224" type="curve" smooth="yes"/>
      <point x="6472" y="136"/>
      <point x="6512" y="48"/>
      <point x="6616" y="48" type="curve" smooth="yes"/>
      <point x="7032" y="48"/>
      <point x="7544" y="560"/>
      <point x="7824" y="1312" type="curve"/>
    </contour>
    <contour>
      <point x="7408" y="5320" type="curve"/>
      <point x="7328" y="5384"/>
      <point x="6928" y="5424"/>
      <point x="6560" y="5424" type="curve" smooth="yes"/>
      <point x="6096" y="5424"/>
      <point x="5720" y="5136"/>
      <point x="5632" y="4768" type="curve"/>
      <point x="5632" y="4928"/>
      <point x="5416" y="2992"/>
      <point x="5528" y="2992" type="curve"/>
      <point x="5472" y="2216"/>
      <point x="5024" y="1936"/>
      <point x="4528" y="1864" type="curve"/>
      <point x="4064" y="2000"/>
      <point x="3680" y="2456"/>
      <point x="3312" y="2704" type="curve" smooth="yes"/>
      <point x="2952" y="2944"/>
      <point x="2904" y="2728"/>
      <point x="3056" y="2240" type="curve"/>
      <point x="3280" y="2240"/>
      <point x="3120" y="96"/>
      <point x="3120" y="-144" type="curve"/>
      <point x="3024" y="-888"/>
      <point x="2528" y="-1528"/>
      <point x="1728" y="-1528" type="curve" smooth="yes"/>
      <point x="1184" y="-1528"/>
      <point x="920" y="-1208"/>
      <point x="864" y="-920" type="curve"/>
      <point x="928" y="-936"/>
      <point x="1296" y="-1024"/>
      <point x="1664" y="-1024" type="curve" smooth="yes"/>
      <point x="2048" y="-1024"/>
      <point x="2352" y="-696"/>
      <point x="2432" y="-368" type="curve"/>
      <point x="2432" y="-528"/>
      <point x="2640" y="1408"/>
      <point x="2528" y="1408" type="curve"/>
      <point x="2584" y="2184"/>
      <point x="3112" y="2456"/>
      <point x="3688" y="2536" type="curve"/>
      <point x="4176" y="2400"/>
      <point x="4584" y="1984"/>
      <point x="4912" y="1696" type="curve" smooth="yes"/>
      <point x="5232" y="1456"/>
      <point x="5288" y="1672"/>
      <point x="5136" y="2160" type="curve"/>
      <point x="4912" y="2160"/>
      <point x="5064" y="4304"/>
      <point x="5064" y="4544" type="curve"/>
      <point x="5160" y="5288"/>
      <point x="5664" y="5928"/>
      <point x="6496" y="5928" type="curve" smooth="yes"/>
      <point x="7064" y="5928"/>
      <point x="7352" y="5632"/>
    </contour>
    <contour>
      <point x="4544" y="4976" type="curve"/>
      <point x="4464" y="5296"/>
      <point x="4064" y="5656"/>
      <point x="3488" y="5656" type="curve" smooth="yes"/>
      <point x="2888" y="5656"/>
      <point x="2528" y="4896"/>
      <point x="2352" y="3920" type="curve" smooth="yes"/>
      <point x="1648" y="-96" type="line" smooth="yes"/>
      <point x="1424" y="-1376"/>
      <point x="544" y="-2080"/>
      <point x="-496" y="-2080" type="curve" smooth="yes"/>
      <point x="-1264" y="-2080"/>
      <point x="-1664" y="-1584"/>
      <point x="-1664" y="-1168" type="curve" smooth="yes"/>
      <point x="-1664" y="-760"/>
      <point x="-1408" y="-512"/>
      <point x="-1048" y="-512" type="curve" smooth="yes"/>
      <point x="-728" y="-512"/>
      <point x="-400" y="-704"/>
      <point x="-400" y="-1104" type="curve" smooth="yes"/>
      <point x="-400" y="-1504"/>
      <point x="-688" y="-1728"/>
      <point x="-1040" y="-1728" type="curve" smooth="yes"/>
      <point x="-1296" y="-1728"/>
      <point x="-1520" y="-1568"/>
      <point x="-1600" y="-1376" type="curve"/>
      <point x="-1520" y="-1696"/>
      <point x="-1120" y="-2056"/>
      <point x="-592" y="-2056" type="curve" smooth="yes"/>
      <point x="-32" y="-2056"/>
      <point x="336" y="-1296"/>
      <point x="512" y="-320" type="curve" smooth="yes"/>
      <point x="1216" y="3696" type="line" smooth="yes"/>
      <point x="1440" y="4976"/>
      <point x="2320" y="5680"/>
      <point x="3400" y="5680" type="curve" smooth="yes"/>
      <point x="4208" y="5680"/>
      <point x="4600" y="5184"/>
      <point x="4600" y="4768" type="curve" smooth="yes"/>
      <point x="4600" y="4360"/>
      <point x="4344" y="4112"/>
      <point x="3984" y="4112" type="curve" smooth="yes"/>
      <point x="3664" y="4112"/>
      <point x="3336" y="4304"/>
      <point x="3336" y="4704" type="curve" smooth="yes"/>
      <point x="3336" y="5104"/>
      <point x="3632" y="5328"/>
      <point x="3984" y="5328" type="curve" smooth="yes"/>
      <point x="4240" y="5328"/>
      <point x="4464" y="5168"/>
    </contour>
  </outline>
</glyph>
<glyph name="J.alt" format="2">
  <advance width="628"/>
  <outline>
    <contour>
      <point x="366" y="750" type="line"/>
      <point x="744" y="750" type="line"/>
      <point x="744" y="748" type="line"/>
      <point x="366" y="748" type="line"/>
    </contour>
    <contour>
      <point x="486" y="750" type="line"/>
      <point x="644" y="750" type="line"/>
      <point x="534" y="280" type="line" smooth="yes"/>
      <point x="498" y="128"/>
      <point x="342" y="-10"/>
      <point x="181" y="-10" type="curve" smooth="yes"/>
      <point x="74" y="-10"/>
      <point x="5" y="65"/>
      <point x="5" y="160" type="curve" smooth="yes"/>
      <point x="5" y="242"/>
      <point x="52" y="290"/>
      <point x="112" y="290" type="curve" smooth="yes"/>
      <point x="167" y="290"/>
      <point x="208" y="257"/>
      <point x="208" y="196" type="curve" smooth="yes"/>
      <point x="208" y="146"/>
      <point x="166" y="103"/>
      <point x="107" y="103" type="curve" smooth="yes"/>
      <point x="55" y="103"/>
      <point x="18" y="142"/>
      <point x="9" y="168" type="curve"/>
      <point x="3" y="68"/>
      <point x="78" y="-8"/>
      <point x="181" y="-8" type="curve" smooth="yes"/>
      <point x="302" y="-8"/>
      <point x="347" y="116"/>
      <point x="376" y="250" type="curve" smooth="yes"/>
    </contour>
  </outline>
</glyph>
<glyph name="fj.lig" format="2">
  <advance width="658"/>
  <outline>
    <contour>
      <point x="377" y="40" type="curve" smooth="yes"/>
      <point x="464" y="458" type="line"/>
      <point x="69" y="458" type="line"/>
      <point x="69" y="460" type="line"/>
      <point x="603" y="460" type="line"/>
      <point x="520" y="38" type="line" smooth="yes"/>
      <point x="496" y="-88"/>
      <point x="383" y="-210"/>
      <point x="248" y="-210" type="curve" smooth="yes"/>
      <point x="157" y="-210"/>
      <point x="100" y="-152"/>
      <point x="100" y="-98" type="curve" smooth="yes"/>
      <point x="100" y="-47"/>
      <point x="139" y="-14"/>
      <point x="184" y="-14" type="curve" smooth="yes"/>
      <point x="224" y="-14"/>
      <point x="263" y="-41"/>
      <point x="263" y="-85" type="curve" smooth="yes"/>
      <point x="263" y="-133"/>
      <point x="224" y="-164"/>
      <point x="182" y="-164" type="curve" smooth="yes"/>
      <point x="146" y="-164"/>
      <point x="114" y="-143"/>
      <point x="109" y="-122" type="curve"/>
      <point x="122" y="-168"/>
      <point x="174" y="-208"/>
      <point x="246" y="-208" type="curve" smooth="yes"/>
      <point x="336" y="-208"/>
      <point x="351" y="-80"/>
    </contour>
    <contour>
      <point x="616" y="668" type="curve"/>
      <point x="605" y="716"/>
      <point x="554" y="757"/>
      <point x="472" y="757" type="curve" smooth="yes"/>
      <point x="387" y="757"/>
      <point x="326" y="662"/>
      <point x="304" y="540" type="curve" smooth="yes"/>
      <point x="206" y="-12" type="line" smooth="yes"/>
      <point x="178" y="-172"/>
      <point x="70" y="-260"/>
      <point x="-60" y="-260" type="curve" smooth="yes"/>
      <point x="-156" y="-260"/>
      <point x="-205" y="-198"/>
      <point x="-205" y="-146" type="curve" smooth="yes"/>
      <point x="-205" y="-95"/>
      <point x="-173" y="-64"/>
      <point x="-128" y="-64" type="curve" smooth="yes"/>
      <point x="-88" y="-64"/>
      <point x="-47" y="-88"/>
      <point x="-47" y="-138" type="curve" smooth="yes"/>
      <point x="-47" y="-188"/>
      <point x="-86" y="-216"/>
      <point x="-130" y="-216" type="curve" smooth="yes"/>
      <point x="-170" y="-216"/>
      <point x="-194" y="-183"/>
      <point x="-200" y="-168" type="curve"/>
      <point x="-192" y="-206"/>
      <point x="-146" y="-256"/>
      <point x="-72" y="-256" type="curve" smooth="yes"/>
      <point x="-2" y="-256"/>
      <point x="45" y="-162"/>
      <point x="66" y="-40" type="curve" smooth="yes"/>
      <point x="162" y="512" type="line" smooth="yes"/>
      <point x="190" y="672"/>
      <point x="310" y="760"/>
      <point x="460" y="760" type="curve" smooth="yes"/>
      <point x="576" y="760"/>
      <point x="620" y="698"/>
      <point x="620" y="646" type="curve" smooth="yes"/>
      <point x="620" y="595"/>
      <point x="589" y="564"/>
      <point x="544" y="564" type="curve" smooth="yes"/>
      <point x="504" y="564"/>
      <point x="462" y="588"/>
      <point x="462" y="638" type="curve" smooth="yes"/>
      <point x="462" y="688"/>
      <point x="501" y="716"/>
      <point x="545" y="716" type="curve" smooth="yes"/>
      <point x="583" y="716"/>
      <point x="606" y="688"/>
    </contour>
  </outline>
</glyph>
<glyph name="v.alt" format="2">
  <advance width="531"/>
  <outline>
    <contour>
      <point x="215" y="475" type="curve"/>
      <point x="216" y="474" type="line"/>
      <point x="175" y="451"/>
      <point x="165" y="423"/>
      <point x="165" y="388" type="curve" smooth="yes"/>
      <point x="165" y="300"/>
      <point x="274" y="259"/>
      <point x="274" y="135" type="curve" smooth="yes"/>
      <point x="274" y="118"/>
      <point x="269" y="62"/>
      <point x="267" y="39" type="curve"/>
      <point x="423" y="121"/>
      <point x="524" y="212"/>
      <point x="524" y="344" type="curve" smooth="yes"/>
      <point x="524" y="358"/>
      <point x="522" y="378"/>
      <point x="517" y="385" type="curve"/>
      <point x="513" y="353"/>
      <point x="486" y="305"/>
      <point x="423" y="305" type="curve" smooth="yes"/>
      <point x="368" y="305"/>
      <point x="337" y="347"/>
      <point x="337" y="387" type="curve" smooth="yes"/>
      <point x="337" y="432"/>
      <point x="371" y="469"/>
      <point x="423" y="469" type="curve" smooth="yes"/>
      <point x="501" y="469"/>
      <point x="526" y="405"/>
      <point x="526" y="344" type="curve" smooth="yes"/>
      <point x="526" y="175"/>
      <point x="366" y="83"/>
      <point x="171" y="-12" type="curve"/>
      <point x="124" y="-3" type="line"/>
      <point x="126" y="19"/>
      <point x="133" y="86"/>
      <point x="133" y="106" type="curve" smooth="yes"/>
      <point x="133" y="183"/>
      <point x="30" y="249"/>
      <point x="30" y="323" type="curve" smooth="yes"/>
      <point x="30" y="403"/>
      <point x="125" y="446"/>
    </contour>
  </outline>
</glyph>
